<svg id="_150076" data-name="150076" xmlns="http://www.w3.org/2000/svg" width="21.235" height="11.181" viewBox="0 0 21.235 11.181">
  <path id="Trazado_5576" data-name="Trazado 5576" d="M0-670.989v3.011H21.235v-.863H8.494v-.879H21.235v-.813H8.494v-.879H21.235v-.846H8.494v-.9H21.235V-674H0Zm.761-2.621c.023.09.053.108.178.108h.095l-.078.06a.3.3,0,0,0-.086.1.4.4,0,0,0,.022.181c.007.017-.02.007-.073-.025-.1-.063-.129-.063-.207-.01a.351.351,0,0,1-.07.041.284.284,0,0,1,0-.1l.01-.1-.081-.07L.39-673.5H.481c.1,0,.166-.031.166-.076a.35.35,0,0,1,.025-.085c.02-.046.03-.055.048-.04A.221.221,0,0,1,.761-673.61Zm2.832,0c.015.076.061.1.173.1h.091l-.081.07-.081.07.01.1a.284.284,0,0,1,0,.1.351.351,0,0,1-.07-.041c-.078-.053-.106-.053-.207.01-.053.031-.08.041-.073.025a.4.4,0,0,0,.022-.181.3.3,0,0,0-.086-.1l-.078-.06h.095c.123,0,.154-.018.178-.1s.048-.123.076-.085A.25.25,0,0,1,3.593-673.607Zm1.415,0c.023.09.053.108.178.108H5.28l-.078.06a.3.3,0,0,0-.086.1.4.4,0,0,0,.022.181c.007.017-.02.007-.073-.025-.1-.063-.129-.063-.207-.01a.351.351,0,0,1-.07.041.284.284,0,0,1,0-.1l.01-.1-.081-.07-.081-.07h.091c.1,0,.166-.031.166-.076a.35.35,0,0,1,.025-.085c.02-.046.03-.055.048-.04A.221.221,0,0,1,5.008-673.61Zm2.832,0c.015.076.061.1.173.1H8.1l-.081.07-.081.07.01.1a.284.284,0,0,1,0,.1.351.351,0,0,1-.07-.041c-.078-.053-.106-.053-.207.01-.053.031-.08.041-.073.025a.4.4,0,0,0,.022-.181.3.3,0,0,0-.086-.1l-.078-.06h.095c.123,0,.154-.018.178-.1s.048-.123.076-.085A.25.25,0,0,1,7.84-673.607Zm-5.664,0a.364.364,0,0,0,.038.09.435.435,0,0,0,.114.016l.106.007-.083.08c-.09.086-.09.088-.051.245.008.038.007.037-.071-.012a.337.337,0,0,0-.106-.051.337.337,0,0,0-.106.051c-.078.048-.08.05-.071.012.038-.159.038-.159-.053-.247l-.085-.081h.08c.116,0,.148-.013.169-.071.043-.116.051-.129.07-.124A.212.212,0,0,1,2.177-673.612Zm4.247,0a.364.364,0,0,0,.038.09.435.435,0,0,0,.114.016l.106.007-.083.08c-.09.086-.09.088-.051.245.008.038.007.037-.071-.012a.337.337,0,0,0-.106-.051.337.337,0,0,0-.106.051c-.078.048-.08.05-.071.012.038-.159.038-.159-.053-.247l-.085-.081h.08c.116,0,.148-.013.169-.071.043-.116.051-.129.07-.124A.212.212,0,0,1,6.424-673.612Zm-4.962.6c.023.09.053.108.178.108h.108l-.065.051c-.095.073-.106.095-.106.2,0,.053-.007.1-.015.1A.189.189,0,0,1,1.5-672.6a.171.171,0,0,0-.078-.042.2.2,0,0,0-.081.042c-.083.063-.095.056-.083-.055l.01-.1-.086-.078-.086-.078H1.2c.123,0,.151-.018.169-.1a.523.523,0,0,1,.028-.086C1.418-673.132,1.435-673.111,1.462-673.013Zm1.415,0c.015.05.038.095.053.1a.633.633,0,0,0,.126.01h.1l-.086.078-.086.078.01.1c.012.111,0,.118-.083.055a.2.2,0,0,0-.081-.042.171.171,0,0,0-.078.042.189.189,0,0,1-.065.041c-.008,0-.015-.043-.015-.1,0-.106-.012-.128-.106-.2l-.065-.051h.1c.123,0,.159-.017.174-.078.018-.078.046-.138.061-.129A.353.353,0,0,1,2.877-673.015Zm2.832,0c.023.09.053.108.178.108h.108l-.065.051c-.095.073-.106.095-.106.2,0,.053-.007.1-.015.1a.189.189,0,0,1-.065-.041.171.171,0,0,0-.078-.042.2.2,0,0,0-.081.042c-.083.063-.095.056-.083-.055l.01-.1-.086-.078-.086-.078h.108c.123,0,.151-.018.169-.1a.523.523,0,0,1,.028-.086C5.665-673.132,5.682-673.111,5.709-673.013Zm1.415,0c.015.05.038.095.053.1a.633.633,0,0,0,.126.01h.1l-.086.078-.086.078.01.1c.012.111,0,.118-.083.055a.2.2,0,0,0-.081-.042A.171.171,0,0,0,7-672.6a.189.189,0,0,1-.065.041c-.008,0-.015-.043-.015-.1,0-.106-.012-.128-.106-.2l-.065-.051h.1c.123,0,.159-.017.174-.078.018-.078.046-.138.061-.129A.353.353,0,0,1,7.124-673.015Zm-2.832,0c.028.095.058.114.176.114h.1l-.085.08-.086.081.012.093c.013.109,0,.116-.083.053a.206.206,0,0,0-.076-.042.206.206,0,0,0-.076.042c-.083.063-.1.056-.083-.053l.012-.093-.086-.081-.085-.08h.1c.1,0,.168-.033.168-.09s.033-.113.053-.106A.159.159,0,0,1,4.292-673.019Zm-3.545.574c.04.124.056.138.166.138a.272.272,0,0,1,.1.01.379.379,0,0,1-.075.076c-.083.073-.091.111-.05.227.013.037.02.068.015.068a.722.722,0,0,1-.1-.066l-.093-.066-.108.078c-.076.053-.1.068-.1.045a.337.337,0,0,0,.043-.2.486.486,0,0,0-.081-.09A.362.362,0,0,1,.4-672.3a.289.289,0,0,1,.1-.008c.095,0,.151-.025.151-.068s.048-.131.065-.131S.737-672.479.747-672.445Zm1.425.023c.04.113.043.115.164.115h.111l-.086.081c-.095.088-.1.109-.063.217a.238.238,0,0,1,.018.078.327.327,0,0,1-.1-.06l-.093-.07-.093.07a.327.327,0,0,1-.1.06.238.238,0,0,1,.018-.078c.038-.108.032-.129-.061-.217l-.088-.081h.109c.121,0,.133-.007.164-.108.012-.036.025-.073.028-.08C2.118-672.523,2.147-672.494,2.172-672.422Zm1.417.008a.285.285,0,0,0,.05.093.375.375,0,0,0,.116.013.27.27,0,0,1,.095.008.362.362,0,0,1-.068.07.486.486,0,0,0-.081.09.337.337,0,0,0,.043.2c.008.023-.02.008-.1-.045l-.108-.078-.093.066a.722.722,0,0,1-.1.066s0-.031.015-.068c.041-.116.033-.154-.05-.227a.379.379,0,0,1-.075-.076.272.272,0,0,1,.1-.01c.109,0,.126-.013.166-.138.01-.035.028-.06.038-.056A.2.2,0,0,1,3.588-672.414Zm1.405-.031c.04.124.056.138.166.138a.272.272,0,0,1,.1.01.379.379,0,0,1-.075.076c-.083.073-.091.111-.05.227.013.037.02.068.015.068a.722.722,0,0,1-.1-.066l-.093-.066-.108.078c-.076.053-.1.068-.1.045a.337.337,0,0,0,.043-.2.486.486,0,0,0-.081-.09.362.362,0,0,1-.068-.07.289.289,0,0,1,.1-.008c.095,0,.151-.025.151-.068s.048-.131.065-.131S4.984-672.479,4.993-672.445Zm1.425.023c.04.113.043.115.164.115h.111l-.086.081c-.095.088-.1.109-.063.217a.238.238,0,0,1,.018.078.327.327,0,0,1-.1-.06l-.093-.07-.093.07a.327.327,0,0,1-.1.06.238.238,0,0,1,.018-.078c.038-.108.032-.129-.061-.217l-.088-.081h.109c.121,0,.133-.007.164-.108.012-.036.025-.073.028-.08C6.365-672.523,6.394-672.494,6.419-672.422Zm1.417.008a.285.285,0,0,0,.05.093.375.375,0,0,0,.116.013.27.27,0,0,1,.095.008.362.362,0,0,1-.068.07.486.486,0,0,0-.081.09.337.337,0,0,0,.043.2c.008.023-.02.008-.1-.045l-.108-.078-.093.066a.722.722,0,0,1-.1.066s0-.031.015-.068c.041-.116.033-.154-.05-.227a.379.379,0,0,1-.075-.076.272.272,0,0,1,.1-.01c.109,0,.126-.013.166-.138.01-.035.028-.06.038-.056A.2.2,0,0,1,7.835-672.414Zm-6.37.6c.027.093.068.119.184.119h.083l-.07.06c-.1.083-.1.1-.078.207.013.05.025.091.025.093,0,.018-.04,0-.1-.053a.339.339,0,0,0-.091-.058.365.365,0,0,0-.1.06c-.041.035-.081.056-.086.051a.144.144,0,0,1,.008-.073.162.162,0,0,0-.06-.216l-.08-.071h.078c.119,0,.153-.02.178-.1C1.4-671.931,1.43-671.936,1.465-671.813Zm1.422.013c.025.086.058.106.179.106h.078l-.08.071a.162.162,0,0,0-.06.216.144.144,0,0,1,.008.073c0,.005-.045-.017-.086-.051a.365.365,0,0,0-.1-.06.339.339,0,0,0-.091.058c-.061.05-.1.071-.1.053,0,0,.012-.043.025-.093.027-.1.02-.124-.078-.207l-.07-.06H2.6c.113,0,.158-.028.181-.109a.652.652,0,0,1,.032-.088C2.83-671.923,2.863-671.885,2.887-671.8Zm1.41-.017c.032.095.073.123.186.123H4.56l-.086.081-.085.081.023.093a.281.281,0,0,1,.012.1c-.007.007-.043-.017-.085-.05a.319.319,0,0,0-.093-.06.319.319,0,0,0-.093.06c-.041.033-.078.056-.085.05a.281.281,0,0,1,.012-.1l.023-.093-.085-.081-.086-.081h.078c.106,0,.154-.028.181-.108.012-.036.025-.076.03-.088C4.237-671.931,4.27-671.9,4.3-671.817Zm1.415,0c.027.093.068.119.184.119h.083l-.07.06c-.1.083-.1.1-.078.207.013.05.025.091.025.093,0,.018-.04,0-.1-.053a.339.339,0,0,0-.091-.058.365.365,0,0,0-.1.06c-.041.035-.081.056-.086.051a.144.144,0,0,1,.008-.073.162.162,0,0,0-.06-.216l-.08-.071h.078c.119,0,.153-.02.178-.1C5.645-671.931,5.677-671.936,5.712-671.813Zm1.422.013c.025.086.058.106.179.106h.078l-.08.071a.162.162,0,0,0-.06.216.144.144,0,0,1,.008.073c0,.005-.045-.017-.086-.051a.365.365,0,0,0-.1-.06.339.339,0,0,0-.091.058c-.061.05-.1.071-.1.053,0,0,.012-.043.025-.093.027-.1.02-.124-.078-.207l-.07-.06h.083c.113,0,.158-.028.181-.109a.652.652,0,0,1,.032-.088C7.077-671.923,7.11-671.885,7.134-671.8Zm-6.372.6c.023.089.053.108.178.108h.095l-.076.06a.171.171,0,0,0-.086.207c.013.1,0,.1-.093.032-.071-.051-.075-.051-.158.012a.262.262,0,0,1-.061.038.251.251,0,0,1-.012-.106c0-.106,0-.106-.078-.174L.39-671.1l.091,0c.1,0,.166-.031.166-.076a.352.352,0,0,1,.025-.085c.02-.046.03-.055.048-.04A.221.221,0,0,1,.761-671.2Zm1.394-.058.036.1c.02.055.053.068.168.068h.08l-.083.08-.085.081.012.093c.007.056,0,.095,0,.095a.35.35,0,0,1-.085-.051l-.07-.051-.07.051a.35.35,0,0,1-.085.051c-.01,0-.012-.038,0-.095l.012-.093-.085-.081-.083-.08h.08c.114,0,.148-.013.168-.068l.036-.1c.01-.028.025-.05.032-.05S2.145-671.291,2.155-671.263Zm1.438.061c.015.075.061.1.173.1l.091,0-.078.066c-.08.068-.08.068-.08.174a.251.251,0,0,1-.012.106.262.262,0,0,1-.061-.038c-.083-.063-.086-.063-.158-.012-.095.07-.106.065-.093-.032a.171.171,0,0,0-.086-.207l-.076-.06h.095c.123,0,.154-.018.178-.1s.048-.123.076-.085A.251.251,0,0,1,3.593-671.2Zm1.415,0c.023.089.053.108.178.108H5.28l-.076.06a.171.171,0,0,0-.086.207c.013.1,0,.1-.093.032-.071-.051-.075-.051-.158.012a.262.262,0,0,1-.061.038.251.251,0,0,1-.012-.106c0-.106,0-.106-.078-.174l-.08-.066.091,0c.1,0,.166-.031.166-.076a.352.352,0,0,1,.025-.085c.02-.046.03-.055.048-.04A.221.221,0,0,1,5.008-671.2Zm1.394-.058.036.1c.02.055.053.068.168.068h.08l-.083.08-.085.081.012.093c.007.056,0,.095,0,.095a.35.35,0,0,1-.085-.051l-.07-.051-.07.051a.35.35,0,0,1-.085.051c-.01,0-.012-.038,0-.095l.012-.093-.085-.081-.083-.08h.08c.114,0,.148-.013.168-.068l.036-.1c.01-.028.025-.05.032-.05S6.392-671.291,6.4-671.263Zm1.438.061c.015.075.061.1.173.1l.091,0-.078.066c-.08.068-.08.068-.08.174a.251.251,0,0,1-.012.106.262.262,0,0,1-.061-.038c-.083-.063-.086-.063-.158-.012-.095.07-.106.065-.093-.032a.171.171,0,0,0-.086-.207l-.076-.06h.095c.123,0,.154-.018.178-.1s.048-.123.076-.085A.251.251,0,0,1,7.84-671.2Zm-6.38.579c.032.11.051.123.179.123H1.75l-.08.068c-.108.093-.116.111-.086.209s.03.088,0,.088a.207.207,0,0,1-.078-.05c-.073-.061-.1-.061-.182,0s-.108.065-.093.012c0-.02.015-.066.022-.1.01-.063.007-.068-.08-.144l-.09-.08.111,0c.124,0,.139-.012.179-.138C1.4-670.72,1.435-670.715,1.46-670.622Zm1.41-.015c.04.126.055.138.179.138H3.16l-.09.08-.09.08.01.095c.013.109,0,.116-.081.053a.206.206,0,0,0-.076-.041.212.212,0,0,0-.08.041.275.275,0,0,1-.07.042.208.208,0,0,1-.013-.1c0-.106,0-.1-.133-.214L2.5-670.5l.111,0c.128,0,.148-.013.179-.123C2.812-670.715,2.843-670.72,2.87-670.637Zm1.425.025a.486.486,0,0,0,.04.091.489.489,0,0,0,.129.022l.116.008-.085.066a.368.368,0,0,0-.091.093.253.253,0,0,0,.01.1c.023.095.012.109-.048.063-.08-.065-.114-.078-.156-.057a.672.672,0,0,0-.083.057c-.06.046-.071.031-.048-.063a.253.253,0,0,0,.01-.1A.368.368,0,0,0,4-670.425l-.085-.066.113-.008c.129-.01.146-.018.161-.073C4.224-670.72,4.255-670.73,4.3-670.612Zm1.412-.01c.032.11.051.123.179.123l.111,0-.041.033c-.134.109-.133.108-.133.214a.208.208,0,0,1-.013.1.275.275,0,0,1-.07-.042.212.212,0,0,0-.08-.041.206.206,0,0,0-.076.041c-.083.063-.095.056-.081-.053l.01-.095-.09-.08-.09-.08h.111c.124,0,.139-.012.179-.138C5.65-670.72,5.682-670.715,5.707-670.622Zm1.41-.015c.04.126.055.138.179.138l.111,0-.09.08c-.086.076-.09.081-.08.144.007.035.017.081.022.1.015.053-.017.048-.093-.012s-.109-.061-.182,0a.207.207,0,0,1-.078.05c-.027,0-.027.008,0-.088s.022-.116-.086-.209l-.08-.068h.111c.128,0,.148-.013.179-.123C7.059-670.715,7.09-670.72,7.117-670.637Zm-6.37.6c.04.126.055.138.174.138a.257.257,0,0,1,.108.012.392.392,0,0,1-.083.076c-.09.068-.1.1-.065.207.03.086.01.095-.073.03a.322.322,0,0,0-.1-.06.317.317,0,0,0-.095.058c-.076.06-.109.056-.085-.01.046-.124.045-.129-.058-.224l-.1-.09H.494c.133,0,.118.012.176-.138.013-.033.032-.061.041-.061S.737-670.073.747-670.04Zm1.425.023c.04.113.041.115.173.115h.119l-.09.078-.088.078.012.115c.012.126.015.126-.093.041a.254.254,0,0,0-.081-.046.366.366,0,0,0-.095.058c-.041.031-.08.055-.085.05a.305.305,0,0,1,.013-.1l.023-.093-.1-.089-.1-.088H1.9c.129,0,.139-.007.171-.108.012-.036.025-.073.028-.08C2.118-670.118,2.147-670.088,2.172-670.017Zm1.42.017.035.09.123.008.124.008-.08.065c-.108.088-.116.106-.086.2a.178.178,0,0,1,.012.093c-.007.007-.045-.013-.085-.045a.317.317,0,0,0-.095-.058.321.321,0,0,0-.1.058c-.043.033-.081.056-.085.051a.258.258,0,0,1,.012-.1c.022-.106.013-.126-.085-.2a.279.279,0,0,1-.065-.063.257.257,0,0,1,.108-.012c.119,0,.134-.012.174-.138.01-.035.028-.06.038-.056A.243.243,0,0,1,3.592-670Zm1.4-.04c.04.126.055.138.174.138a.257.257,0,0,1,.108.012.279.279,0,0,1-.065.063c-.1.076-.106.1-.085.2a.258.258,0,0,1,.012.1s-.041-.018-.085-.051a.321.321,0,0,0-.1-.058.317.317,0,0,0-.095.058c-.076.06-.109.056-.085-.01.046-.124.045-.129-.058-.224l-.1-.09h.121c.133,0,.118.012.176-.138.013-.033.032-.061.041-.061S4.984-670.073,4.993-670.04Zm1.425.023c.04.113.041.115.171.115h.118l-.1.088-.1.089.023.093a.305.305,0,0,1,.013.1c0,.005-.043-.018-.085-.05a.366.366,0,0,0-.095-.058.254.254,0,0,0-.081.046c-.108.085-.1.085-.093-.041l.012-.115-.088-.078-.09-.078h.118c.131,0,.141-.007.173-.108.012-.036.025-.073.028-.08C6.365-670.118,6.394-670.088,6.419-670.017Zm1.42.017.035.09L8-669.9l.124.008-.08.065c-.108.088-.116.106-.086.2a.178.178,0,0,1,.012.093c-.007.007-.045-.013-.085-.045a.317.317,0,0,0-.095-.058.322.322,0,0,0-.1.06c-.083.065-.1.056-.073-.03.036-.1.025-.139-.065-.207a.392.392,0,0,1-.083-.076.257.257,0,0,1,.108-.012c.119,0,.134-.012.174-.138.01-.035.028-.06.038-.056A.243.243,0,0,1,7.839-670Zm-6.377.589c.033.1.073.123.2.123h.09l-.085.066c-.093.075-.111.108-.09.168s.036.131.023.131a.4.4,0,0,1-.091-.058.4.4,0,0,0-.091-.058.406.406,0,0,0-.093.06c-.041.035-.081.058-.086.053a.2.2,0,0,1,.012-.086.162.162,0,0,0-.076-.209l-.075-.058.109-.012a.379.379,0,0,0,.123-.025.561.561,0,0,0,.041-.1c.015-.05.036-.085.046-.081S1.447-669.456,1.462-669.411Zm1.417-.007a.561.561,0,0,0,.041.1.379.379,0,0,0,.123.025l.109.012-.075.058a.162.162,0,0,0-.076.209.2.2,0,0,1,.012.086c0,.005-.045-.018-.086-.053a.406.406,0,0,0-.093-.06.4.4,0,0,0-.091.058.4.4,0,0,1-.091.058c-.013,0,0-.058.023-.131s0-.093-.09-.168l-.085-.066h.09c.121,0,.164-.026.189-.109C2.819-669.532,2.84-669.537,2.878-669.418Zm1.418.007c.033.1.073.123.191.123H4.57l-.09.08-.091.081.023.093a.254.254,0,0,1,.012.1c0,.005-.045-.017-.088-.05a.469.469,0,0,0-.09-.06.469.469,0,0,0-.09.06c-.043.033-.083.055-.088.05a.254.254,0,0,1,.012-.1l.023-.093-.091-.081-.09-.08h.083c.111,0,.158-.028.186-.108.012-.036.025-.076.03-.088C4.237-669.526,4.27-669.494,4.3-669.411Zm1.412,0c.033.1.073.123.2.123h.09l-.085.066c-.093.075-.111.108-.09.168s.036.131.023.131a.4.4,0,0,1-.091-.058.4.4,0,0,0-.091-.058.406.406,0,0,0-.093.06c-.041.035-.081.058-.086.053a.2.2,0,0,1,.012-.086.162.162,0,0,0-.076-.209l-.075-.058.109-.012a.379.379,0,0,0,.123-.025.561.561,0,0,0,.041-.1c.015-.05.036-.085.046-.081S5.694-669.456,5.709-669.411Zm1.417-.007a.561.561,0,0,0,.041.1.379.379,0,0,0,.123.025l.109.012-.075.058a.162.162,0,0,0-.076.209.2.2,0,0,1,.012.086c0,.005-.045-.018-.086-.053a.406.406,0,0,0-.093-.06.4.4,0,0,0-.091.058.4.4,0,0,1-.091.058c-.013,0,0-.058.023-.131s0-.093-.09-.168l-.085-.066h.09c.121,0,.164-.026.189-.109C7.066-669.532,7.087-669.537,7.125-669.418ZM.756-668.8c.015.078.061.1.181.1h.1l-.091.081-.091.08.022.1a.344.344,0,0,1,.012.1s-.04-.013-.08-.042-.078-.055-.088-.06-.053.015-.095.046c-.08.061-.121.075-.106.035,0-.013.018-.055.028-.091.022-.08.01-.1-.093-.184l-.073-.058.111-.008c.133-.01.148-.017.159-.078a.706.706,0,0,1,.028-.1c.018-.048.02-.048.043-.018A.285.285,0,0,1,.756-668.8Zm1.408-.02a.23.23,0,0,0,.058.108.387.387,0,0,0,.133.017h.1l-.093.076c-.1.081-.1.086-.075.2.01.042.015.08.008.085s-.045-.017-.086-.052a.462.462,0,0,0-.09-.06.462.462,0,0,0-.09.06c-.041.035-.081.056-.086.052s0-.043.008-.085c.028-.113.025-.118-.075-.2l-.093-.076h.1a.387.387,0,0,0,.133-.017.23.23,0,0,0,.058-.108c.013-.05.033-.091.041-.091S2.152-668.866,2.165-668.816Zm1.418,0a.36.36,0,0,0,.036.1.391.391,0,0,0,.131.025l.114.008-.073.058c-.1.081-.114.1-.093.184.01.036.023.078.028.091.015.04-.027.026-.106-.035-.041-.032-.085-.053-.095-.046s-.05.033-.088.06-.075.046-.08.042a.344.344,0,0,1,.012-.1l.022-.1-.091-.08-.091-.081h.1c.1,0,.174-.03.174-.076s.048-.143.063-.133A.242.242,0,0,1,3.583-668.812ZM5-668.8c.015.078.061.1.181.1h.1l-.091.081-.091.08.022.1a.344.344,0,0,1,.012.1s-.04-.013-.08-.042-.078-.055-.088-.06-.053.015-.095.046c-.08.061-.121.075-.106.035,0-.013.018-.055.028-.091.022-.08.01-.1-.093-.184l-.073-.058.111-.008c.133-.01.148-.017.159-.078a.706.706,0,0,1,.028-.1c.018-.048.02-.048.043-.018A.285.285,0,0,1,5-668.8Zm1.408-.02a.23.23,0,0,0,.058.108.387.387,0,0,0,.133.017h.1l-.093.076c-.1.081-.1.086-.075.2.01.042.015.08.008.085s-.045-.017-.086-.052a.462.462,0,0,0-.09-.06.462.462,0,0,0-.09.06c-.041.035-.081.056-.086.052s0-.043.008-.085c.028-.113.025-.118-.075-.2l-.093-.076h.1a.387.387,0,0,0,.133-.017.23.23,0,0,0,.058-.108c.013-.05.033-.091.041-.091S6.4-668.866,6.412-668.816Zm1.418,0a.36.36,0,0,0,.036.1.391.391,0,0,0,.131.025l.114.008-.073.058c-.1.081-.114.1-.093.184.01.036.023.078.028.091.015.04-.027.026-.106-.035-.041-.032-.085-.053-.095-.046s-.05.033-.088.06-.075.046-.08.042a.344.344,0,0,1,.012-.1l.022-.1-.091-.08-.091-.081h.1c.1,0,.174-.03.174-.076s.048-.143.063-.133A.242.242,0,0,1,7.83-668.812Z" transform="translate(0 674)" fill="#6e6961"/>
  <path id="Trazado_5577" data-name="Trazado 5577" d="M0-257.594v.406H21.235V-258H0Z" transform="translate(0 264.901)" fill="#6e6961"/>
  <path id="Trazado_5578" data-name="Trazado 5578" d="M0-155.577v.423H21.235V-156H0Z" transform="translate(0 164.593)" fill="#6e6961"/>
  <path id="Trazado_5579" data-name="Trazado 5579" d="M0-50.577v.423H21.235V-51H0Z" transform="translate(0 61.335)" fill="#6e6961"/>
</svg>
