<svg xmlns="http://www.w3.org/2000/svg" xmlns:xlink="http://www.w3.org/1999/xlink" width="12.363" height="12.363" viewBox="0 0 12.363 12.363">
  <defs>
    <clipPath id="clip-path">
      <path id="Trazado_88932" data-name="Trazado 88932" d="M0,0H12.363V12.363H0Z" fill="#fafafa"/>
    </clipPath>
  </defs>
  <g id="copy-svgrepo-com" clip-path="url(#clip-path)">
    <path id="Trazado_88931" data-name="Trazado 88931" d="M5.576,4.03H9.591a1.865,1.865,0,0,1,.992.172,1.173,1.173,0,0,1,.487.487,1.865,1.865,0,0,1,.172.992V9.7a.515.515,0,0,0,1.03,0V5.642A2.993,2.993,0,0,0,12,4.054a1.873,1.873,0,0,0-.779-.779A2.993,2.993,0,0,0,9.631,3H5.576a.515.515,0,0,0,0,1.03Zm3.977,1.2a1.865,1.865,0,0,0-.992-.172H4.651a1.865,1.865,0,0,0-.992.172,1.17,1.17,0,0,0-.487.487A1.865,1.865,0,0,0,3,6.712v3.91a1.867,1.867,0,0,0,.172.992,1.173,1.173,0,0,0,.487.487,1.865,1.865,0,0,0,.992.172h3.91a1.867,1.867,0,0,0,.992-.172,1.173,1.173,0,0,0,.487-.487,1.865,1.865,0,0,0,.172-.992V6.712a1.865,1.865,0,0,0-.172-.992,1.17,1.17,0,0,0-.487-.487Z" transform="translate(-1.455 -1.455)" fill="#fafafa" fill-rule="evenodd"/>
  </g>
</svg>
