<svg id="Grupo_285" data-name="Grupo 285" xmlns="http://www.w3.org/2000/svg" width="18.642" height="18.709" viewBox="0 0 18.642 18.709">
  <path id="Sustracción_2" data-name="Sustracción 2" d="M9.374,18.709c-.2,0-.4-.006-.607-.019s-.408-.032-.611-.058-.41-.058-.614-.1-.412-.084-.616-.136a7.163,7.163,0,0,1-1.1-.351,8.415,8.415,0,0,1-1.065-.527,9.511,9.511,0,0,1-1.007-.68,10.236,10.236,0,0,1-1.749-1.726,9.707,9.707,0,0,1-.7-1A8.675,8.675,0,0,1,.761,13.06a7.411,7.411,0,0,1-.376-1.092A9.524,9.524,0,0,1,0,9.2,9.14,9.14,0,0,1,1.618,4.1a9.66,9.66,0,0,1,1.9-2.047c.2-.163.412-.319.628-.465s.441-.283.67-.41A9.419,9.419,0,0,1,6.263.537,9.6,9.6,0,0,1,7.8.137c.262-.045.529-.08.792-.1S9.131,0,9.4,0c.239,0,.479.009.715.028s.478.048.712.085.474.087.7.144.467.127.693.2a7.434,7.434,0,0,1,1.653.685A9.258,9.258,0,0,1,15.4,2.219c.238.205.469.424.687.651s.425.467.617.711a8.392,8.392,0,0,1,.971,1.552c.1.192.192.393.277.6s.161.412.23.624a9.2,9.2,0,0,1,.319,1.312,10,10,0,0,1,.132,1.365,10.334,10.334,0,0,1-.054,1.381,10.119,10.119,0,0,1-.239,1.359,9.421,9.421,0,0,1-.423,1.3c-.086.21-.18.417-.28.615s-.211.4-.326.586-.241.376-.371.552-.272.352-.417.514a10.15,10.15,0,0,1-.729.775,9.728,9.728,0,0,1-.788.678,9.424,9.424,0,0,1-.842.578,9.141,9.141,0,0,1-3.78,1.284A9.47,9.47,0,0,1,9.374,18.709ZM9.223.538c-.11,0-.221,0-.331.006-.208.008-.419.024-.629.05s-.418.059-.626.1a8.55,8.55,0,0,0-1.231.349,9.174,9.174,0,0,0-1.179.529A9.439,9.439,0,0,0,3.13,3.1a8.946,8.946,0,0,0-.862.963c-.131.17-.257.346-.373.523s-.228.363-.33.548-.2.379-.283.571-.165.393-.233.592A7.428,7.428,0,0,0,.61,7.938,9.1,9.1,0,0,0,.517,9.7c.013.295.039.591.079.882s.094.58.161.859a7.633,7.633,0,0,0,.559,1.584,8.731,8.731,0,0,0,1.37,2.128,8.87,8.87,0,0,0,4.14,2.666,8.712,8.712,0,0,0,2.495.365c.169,0,.34-.005.509-.015.2-.008.407-.024.61-.047s.4-.056.6-.095a8.426,8.426,0,0,0,1.184-.325,8.892,8.892,0,0,0,1.132-.492,9.157,9.157,0,0,0,2.019-1.427,8.922,8.922,0,0,0,.844-.905,8.483,8.483,0,0,0,.705-1.013c.1-.177.2-.36.294-.543s.176-.375.251-.564A7.249,7.249,0,0,0,18,10.972a8.906,8.906,0,0,0,.106-.958,9.627,9.627,0,0,0,0-.975c-.015-.324-.046-.65-.092-.97a9.566,9.566,0,0,0-.186-.945,8.75,8.75,0,0,0-.277-.9,7.578,7.578,0,0,0-.363-.832,8.434,8.434,0,0,0-1.4-2.04,8.61,8.61,0,0,0-1.881-1.527A8.957,8.957,0,0,0,11.681.869,9.242,9.242,0,0,0,9.223.538Z" transform="translate(0 0)" fill="#6e6961"/>
  <path id="Sustracción_3" data-name="Sustracción 3" d="M6.79,13.533a6.962,6.962,0,0,1-2.169-.349,5.615,5.615,0,0,1-.843-.341,6.41,6.41,0,0,1-.8-.476,7.063,7.063,0,0,1-.736-.592A7.394,7.394,0,0,1,1.022,10.32,6.924,6.924,0,0,1,.57,9.495,6.216,6.216,0,0,1,.246,8.63a5.412,5.412,0,0,1-.18-.885A7.535,7.535,0,0,1,0,6.729a7.045,7.045,0,0,1,.073-.984A6.732,6.732,0,0,1,.28,4.8a6.558,6.558,0,0,1,.8-1.727,6.778,6.778,0,0,1,.586-.768,7.117,7.117,0,0,1,.7-.693,7.625,7.625,0,0,1,.818-.61,5.4,5.4,0,0,1,.8-.441A6.226,6.226,0,0,1,4.874.25,6.96,6.96,0,0,1,5.809.062a7.449,7.449,0,0,1,1.9,0,7.106,7.106,0,0,1,.912.176,6.431,6.431,0,0,1,.863.293,5.6,5.6,0,0,1,.79.409,6.729,6.729,0,0,1,.834.613,7.377,7.377,0,0,1,.749.743,7.008,7.008,0,0,1,.627.834,5.8,5.8,0,0,1,.468.886,5.919,5.919,0,0,1,.318.864,6.6,6.6,0,0,1,.189.917,7.124,7.124,0,0,1,.063.946,7.358,7.358,0,0,1-.062.952,7.244,7.244,0,0,1-.185.934,6.816,6.816,0,0,1-.306.892,6.183,6.183,0,0,1-.426.827,5.5,5.5,0,0,1-.543.738,7.073,7.073,0,0,1-.526.563,6.916,6.916,0,0,1-.573.493,6.758,6.758,0,0,1-1.265.768,6.72,6.72,0,0,1-2.108.588A6.812,6.812,0,0,1,6.79,13.533ZM6.719.237a6.87,6.87,0,0,0-.805.047,6.362,6.362,0,0,0-.784.143A5.307,5.307,0,0,0,3.7,1.005,6.73,6.73,0,0,0,2.083,2.216,6.444,6.444,0,0,0,.946,3.8,6.633,6.633,0,0,0,.292,7.663a5.485,5.485,0,0,0,.176.847,6.275,6.275,0,0,0,.308.832,6.887,6.887,0,0,0,.427.8,7.172,7.172,0,0,0,.531.744,7.068,7.068,0,0,0,.623.67,6.614,6.614,0,0,0,.7.576,5.939,5.939,0,0,0,.764.463,5.211,5.211,0,0,0,.814.33c.172.061.348.116.525.162s.353.084.531.114a6.377,6.377,0,0,0,1.068.09,6.506,6.506,0,0,0,1.285-.129,6.608,6.608,0,0,0,3.379-1.819,6.072,6.072,0,0,0,1.122-1.548,6.529,6.529,0,0,0,.37-.881,6.739,6.739,0,0,0,.239-.926,6.816,6.816,0,0,0,.107-.951,6.74,6.74,0,0,0-.029-.957,6.536,6.536,0,0,0-.167-.943,6.26,6.26,0,0,0-.307-.909,5.974,5.974,0,0,0-.39-.784,6.653,6.653,0,0,0-.511-.744,6.841,6.841,0,0,0-.616-.678,6.52,6.52,0,0,0-.7-.588A5.257,5.257,0,0,0,9.7.914,6.179,6.179,0,0,0,8.763.54,6.869,6.869,0,0,0,7.756.313,7.1,7.1,0,0,0,6.719.237h0Z" transform="translate(2.566 2.6)" fill="#6e6961"/>
  <path id="Trazado_6" data-name="Trazado 6" d="M255.082-514.373a.351.351,0,0,1,.462.311.352.352,0,0,1-.31.464l-1.278.25-.045-.229,1.316-.257c.112-.022.161-.074.138-.193s-.088-.147-.2-.125l-1.316.257-.044-.229Z" transform="translate(-253.025 524.975)" fill="#6e6961"/>
  <path id="Trazado_7" data-name="Trazado 7" d="M253.261-519.508l-.022-.321,1.376-.368v0l-1.394.094-.015-.219,1.678-.113.022.335-1.413.371v0l1.431-.1.014.2Z" transform="translate(-252.524 530.039)" fill="#6e6961"/>
  <path id="Trazado_8" data-name="Trazado 8" d="M253.246-522.643l0-.233,1.681.036,0,.233Z" transform="translate(-252.558 532.077)" fill="#6e6961"/>
  <path id="Trazado_9" data-name="Trazado 9" d="M253.263-529.026l.026-.231,1.355-.093v0l-1.3-.388.026-.231,1.633.526-.03.269Z" transform="translate(-252.572 538.014)" fill="#6e6961"/>
  <path id="Trazado_10" data-name="Trazado 10" d="M254.224-534.613l.14-.618.191.043-.089.391.513.116.083-.368.191.043-.083.368.554.126.089-.391.191.043-.14.618Z" transform="translate(-253.376 542.41)" fill="#6e6961"/>
  <path id="Trazado_11" data-name="Trazado 11" d="M255.473-539.792l.117-.341c.11-.322.208-.325.556-.206.214.073.3.134.289.333l0,0c.067-.144.161-.169.311-.117l.346.119a1.156,1.156,0,0,0,.207.056l-.071.207a.291.291,0,0,1-.152-.023l-.359-.123c-.15-.051-.2-.039-.248.107l-.026.075.692.237-.076.22Zm.789.025.02-.057c.06-.174.035-.21-.2-.291s-.262-.075-.309.061l-.036.106Z" transform="translate(-254.421 546.743)" fill="#6e6961"/>
  <path id="Trazado_12" data-name="Trazado 12" d="M259.188-544.919l.1-.21.124.059c.1.048.182.041.222-.043.054-.111-.009-.175-.108-.222-.128-.061-.173-.075-.494.039a.7.7,0,0,1-.58.024.338.338,0,0,1-.19-.514.4.4,0,0,1,.2-.205.27.27,0,0,1,.222.032l.143.069-.095.2-.12-.057c-.086-.041-.154-.03-.193.052s-.012.149.106.206.176.059.47-.038c.313-.1.4-.106.587-.018.237.114.329.272.21.521-.093.193-.238.286-.427.2Z" transform="translate(-256.708 551.42)" fill="#6e6961"/>
  <path id="Trazado_13" data-name="Trazado 13" d="M260.326-548.929l.118-.2,1.451.85-.118.2Z" transform="translate(-258.479 554.035)" fill="#6e6961"/>
  <path id="Trazado_14" data-name="Trazado 14" d="M261.908-553.234l.217-.306c.219-.307.339-.259.737.025l.408.29c.351.25.416.391.2.691l-.2.275Zm1.345.672.065-.091c.1-.14.045-.22-.19-.387l-.471-.335c-.2-.144-.286-.172-.4-.011l-.054.076Z" transform="translate(-259.803 557.898)" fill="#6e6961"/>
  <path id="Trazado_15" data-name="Trazado 15" d="M267.244-558.472l.184-.2,1.464.9-.159.17-.366-.236-.248.266.261.348-.159.17Zm.756.74.2-.216-.691-.447,0,0Z" transform="translate(-264.265 562.013)" fill="#6e6961"/>
  <path id="Trazado_16" data-name="Trazado 16" d="M271.069-563.254l.29-.238c.291-.24.395-.162.705.216l.318.387c.274.333.3.486.016.72l-.261.215Zm1.124,1,.086-.071c.133-.109.1-.2-.083-.423l-.367-.446c-.158-.192-.231-.241-.384-.115l-.072.059Z" transform="translate(-267.464 566.161)" fill="#6e6961"/>
  <path id="Trazado_17" data-name="Trazado 17" d="M281.7-569.96l.339-.16c.341-.161.422-.06.631.382l.214.453c.184.39.172.545-.161.7l-.305.144Zm.845,1.244.1-.048c.156-.074.146-.17.023-.431l-.247-.522c-.106-.225-.165-.29-.344-.206l-.084.04Z" transform="translate(-276.359 571.65)" fill="#6e6961"/>
  <path id="Trazado_18" data-name="Trazado 18" d="M287.811-572.522l.6-.2.062.185-.38.128.168.5.358-.12.062.185-.358.12.181.539.38-.128.062.185-.6.2Z" transform="translate(-281.467 573.768)" fill="#6e6961"/>
  <path id="Trazado_19" data-name="Trazado 19" d="M292.834-573.344l.227-.052.328,1.449.382-.086.043.191-.609.138Z" transform="translate(-285.668 574.33)" fill="#6e6961"/>
  <path id="Trazado_20" data-name="Trazado 20" d="M304.065-573.619l.233,0v.137c0,.112.041.182.134.183.123,0,.154-.083.155-.192,0-.142-.006-.189-.246-.43a.7.7,0,0,1-.269-.514c0-.275.131-.393.385-.391a.4.4,0,0,1,.272.1.271.271,0,0,1,.066.215v.158l-.219,0v-.133c0-.1-.038-.152-.129-.152s-.14.052-.141.183c0,.114.022.184.234.409s.268.321.266.524c0,.263-.106.414-.383.412-.214,0-.36-.094-.359-.3Z" transform="translate(-295.06 575.525)" fill="#6e6961"/>
  <path id="Trazado_21" data-name="Trazado 21" d="M309.381-574.347l.268.037.107,1.713-.231-.032-.017-.435-.36-.05-.135.414-.231-.032Zm-.171,1.044.293.041-.031-.823h0Z" transform="translate(-299.007 575.125)" fill="#6e6961"/>
  <path id="Trazado_22" data-name="Trazado 22" d="M316.323-572.513l.023-.083c.032-.114,0-.2-.091-.224-.1-.029-.181.05-.23.223l-.231.816c-.037.13,0,.231.094.257a.679.679,0,0,0,.148.025l.135-.475-.148-.042.053-.188.372.105-.23.813a1.978,1.978,0,0,1-.381-.064c-.285-.081-.334-.257-.263-.508l.232-.818c.086-.3.212-.4.5-.318.24.068.341.191.282.4l-.042.148Z" transform="translate(-304.662 574.017)" fill="#6e6961"/>
  <path id="Trazado_23" data-name="Trazado 23" d="M320.957-571.446l.332.142c.313.134.309.231.164.569-.089.208-.155.286-.354.264l0,0c.139.077.156.173.094.319l-.144.336a1.152,1.152,0,0,0-.071.2l-.2-.086a.29.29,0,0,1,.034-.15l.15-.349c.062-.146.053-.2-.088-.256l-.073-.031-.288.672-.214-.092Zm-.083.785.056.024c.169.072.206.05.305-.181s.094-.256-.038-.313l-.1-.044Z" transform="translate(-308.635 572.699)" fill="#6e6961"/>
  <path id="Trazado_24" data-name="Trazado 24" d="M325.929-567.787l.232.138-.567,1.62-.2-.119.154-.407-.312-.186-.286.329-.2-.119Zm-.564.9.254.151.291-.77,0,0Z" transform="translate(-312.361 569.639)" fill="#6e6961"/>
  <path id="Trazado_25" data-name="Trazado 25" d="M331.212-564.855l.293.234c.3.235.241.352-.064.735l-.312.392c-.268.337-.413.395-.7.166l-.264-.21Zm-.743,1.308.087.07c.135.107.217.057.4-.169l.36-.452c.155-.2.187-.277.032-.4l-.073-.058Z" transform="translate(-316.89 567.187)" fill="#6e6961"/>
  <path id="Trazado_26" data-name="Trazado 26" d="M335.935-559.576c.169-.164.371-.253.592-.026a.351.351,0,0,1-.023.574l-.609.593c-.169.164-.371.254-.593.025a.351.351,0,0,1,.024-.573Zm-.457.769c-.1.1-.113.2-.046.269s.169.063.272-.037l.633-.616c.118-.115.134-.209.06-.286s-.167-.062-.286.054Z" transform="translate(-321.072 562.908)" fill="#6e6961"/>
  <path id="Trazado_27" data-name="Trazado 27" d="M341.3-552.421c.195-.132.409-.185.587.077a.289.289,0,0,1-.063.451l-.139.094-.123-.181.1-.065c.089-.06.124-.129.069-.21-.068-.1-.153-.071-.32.043l-.682.463c-.164.111-.157.183-.115.245s.13.083.245,0l.1-.065.123.181-.154.1c-.146.1-.3.116-.451-.108-.165-.243-.09-.409.126-.556Z" transform="translate(-325.438 556.879)" fill="#6e6961"/>
  <path id="Trazado_28" data-name="Trazado 28" d="M344.173-547.163c.209-.107.429-.133.573.149s.041.423-.191.542l-.757.387c-.209.107-.429.133-.574-.151-.136-.265-.041-.421.192-.54Zm-.663.6c-.129.066-.167.159-.124.244s.143.11.271.044l.786-.4c.147-.076.19-.16.141-.256s-.142-.108-.289-.033Z" transform="translate(-327.76 552.452)" fill="#6e6961"/>
  <path id="Trazado_29" data-name="Trazado 29" d="M346.695-541.532l.122.34c.115.32.041.384-.305.508-.213.076-.315.081-.434-.079h0c.038.155-.021.232-.17.286l-.344.123a1.163,1.163,0,0,0-.2.085l-.074-.206a.289.289,0,0,1,.133-.077l.357-.128c.149-.054.179-.094.127-.239l-.027-.075-.688.247-.078-.219Zm-.632.474.02.057c.062.173.1.186.34.1s.252-.105.2-.241l-.038-.105Z" transform="translate(-329.391 547.68)" fill="#6e6961"/>
  <path id="Trazado_30" data-name="Trazado 30" d="M348.577-533.2l.056.264-1.573.685-.048-.228.4-.164-.076-.355-.435.014-.048-.228Zm-1.039.2.062.289.763-.31v0Z" transform="translate(-330.849 540.726)" fill="#6e6961"/>
  <path id="Trazado_31" data-name="Trazado 31" d="M348.32-527.422l1.313.417-.038-.457.195-.016.057.689-.195.016-1.329-.416.044.534-.195.016-.063-.766Z" transform="translate(-331.897 535.926)" fill="#6e6961"/>
  <path id="Trazado_32" data-name="Trazado 32" d="M349.616-521.55c.235.009.439.094.427.41-.011.3-.171.39-.432.38l-.849-.032c-.235-.009-.439-.094-.427-.412.011-.3.171-.388.431-.378Zm-.872.2c-.144-.005-.224.057-.227.152s.071.166.215.171l.882.033c.165.006.244-.047.248-.154s-.071-.163-.236-.17Z" transform="translate(-332.086 530.996)" fill="#6e6961"/>
  <path id="Trazado_33" data-name="Trazado 33" d="M349.181-515.564l-.055.317-1.424.034v0l1.377.237-.037.216-1.657-.285.057-.331,1.46-.028v0l-1.414-.243.035-.2Z" transform="translate(-331.292 526.2)" fill="#6e6961"/>
  <path id="Trazado_34" data-name="Trazado 34" d="M288.02-558.963a3.6,3.6,0,0,1,.274,1.233l.069.062a2.649,2.649,0,0,1,1.315.315l-.014.164a.906.906,0,0,1-.411-.13,3.166,3.166,0,0,0-1.171-.151,2.947,2.947,0,0,0-1.377-2.678,3,3,0,0,0-3.11-.021,3.034,3.034,0,0,0-1.466,2.747,6.021,6.021,0,0,0-1.014.151.292.292,0,0,1-.055-.2,4.427,4.427,0,0,1,.808-.151c.13-.075.027-.267.082-.391a3.306,3.306,0,0,1,1.938-2.548,3.219,3.219,0,0,1,3.473.658,3.469,3.469,0,0,1,.658.938" transform="translate(-275.821 563.801)" fill="#6e6961"/>
  <path id="Trazado_35" data-name="Trazado 35" d="M306.718-558.261c-.041-.034,0-.1.014-.151.02.027.041.123-.014.151" transform="translate(-297.265 561.798)" fill="#6e6961"/>
  <path id="Trazado_36" data-name="Trazado 36" d="M304.232-558.232c-.05-.018-.035-.1-.038-.147.028.019.08.1.038.147" transform="translate(-295.169 561.77)" fill="#6e6961"/>
  <path id="Trazado_37" data-name="Trazado 37" d="M302.811-549.585c.023.048-.044.093-.076.131-.007-.034.015-.129.076-.131" transform="translate(-293.948 554.415)" fill="#6e6961"/>
  <path id="Trazado_38" data-name="Trazado 38" d="M307.825-557.773c-.034-.034,0-.1.034-.137.034.034.007.1-.034.137" transform="translate(-298.194 561.378)" fill="#6e6961"/>
  <path id="Trazado_39" data-name="Trazado 39" d="M302.957-557.735v.055c-.041-.007-.075-.075-.082-.117.041-.014.075.034.082.062" transform="translate(-294.065 561.285)" fill="#6e6961"/>
  <path id="Trazado_40" data-name="Trazado 40" d="M319.951-557.666c.014.027-.02.048-.034.069h-.048v-.1a.092.092,0,0,1,.082.034" transform="translate(-308.279 561.203)" fill="#6e6961"/>
  <path id="Trazado_41" data-name="Trazado 41" d="M308.76-557.407c-.034.062-.075.151-.151.164.014-.069.055-.164.151-.164" transform="translate(-298.861 560.957)" fill="#6e6961"/>
  <path id="Trazado_42" data-name="Trazado 42" d="M300.213-553.433c-.068.019-.16.053-.223.01a.175.175,0,0,1,.223-.01" transform="translate(-291.653 557.665)" fill="#6e6961"/>
  <path id="Trazado_43" data-name="Trazado 43" d="M310.236-553.433c-.068.019-.16.053-.223.01a.175.175,0,0,1,.223-.01" transform="translate(-300.036 557.665)" fill="#6e6961"/>
  <path id="Trazado_44" data-name="Trazado 44" d="M291.67-557.2c0,.021,0,.041-.02.048h-.034v-.048Z" transform="translate(-284.649 560.783)" fill="#6e6961"/>
  <path id="Trazado_45" data-name="Trazado 45" d="M320.714-557.163c0,.055-.069.089-.1.13-.027.014-.041-.014-.062-.034-.028-.062.048-.082.082-.13a.1.1,0,0,1,.082.034" transform="translate(-308.843 560.782)" fill="#6e6961"/>
  <path id="Trazado_46" data-name="Trazado 46" d="M290.359-556.679c-.007.021.014.055-.014.069-.062.027-.082-.041-.116-.069-.014-.082.116-.062.13,0" transform="translate(-283.488 560.394)" fill="#6e6961"/>
  <path id="Trazado_47" data-name="Trazado 47" d="M321.658-556.592a.254.254,0,0,1-.164.212.092.092,0,0,1-.034-.082c.069-.048.1-.157.2-.13" transform="translate(-309.609 560.28)" fill="#6e6961"/>
  <path id="Trazado_48" data-name="Trazado 48" d="M289.289-556.078c.014.027-.021.048-.034.069a.269.269,0,0,1-.151-.137c.034-.116.157.007.185.069" transform="translate(-282.548 559.943)" fill="#6e6961"/>
  <path id="Trazado_49" data-name="Trazado 49" d="M322.619-555.976c-.041.1-.123.226-.233.247-.068-.11.117-.164.151-.26.027.007.062-.014.082.014" transform="translate(-310.372 559.773)" fill="#6e6961"/>
  <path id="Trazado_50" data-name="Trazado 50" d="M288.249-555.413c-.007.02.007.048-.02.062-.1,0-.144-.11-.212-.164v-.062c.11-.021.151.11.233.164" transform="translate(-281.638 559.429)" fill="#6e6961"/>
  <path id="Trazado_51" data-name="Trazado 51" d="M323.491-555.377a.488.488,0,0,1-.315.308c.014-.144.185-.281.295-.329Z" transform="translate(-311.044 559.277)" fill="#6e6961"/>
  <path id="Trazado_52" data-name="Trazado 52" d="M287.174-554.714c-.123,0-.185-.144-.274-.212a.049.049,0,0,1,.062-.069c.068.1.212.158.212.281" transform="translate(-280.7 558.943)" fill="#6e6961"/>
  <path id="Trazado_53" data-name="Trazado 53" d="M301.578-557.407c.034.062.075.151.151.164-.014-.069-.055-.164-.151-.164" transform="translate(-292.981 560.957)" fill="#6e6961"/>
  <path id="Trazado_54" data-name="Trazado 54" d="M324.166-554.666v.048c-.137.1-.212.267-.363.343a.058.058,0,0,1-.014-.1c.123-.1.2-.288.363-.315Z" transform="translate(-311.542 558.682)" fill="#6e6961"/>
  <path id="Trazado_55" data-name="Trazado 55" d="M286.145-554.06c-.151.02-.267-.192-.363-.281a.052.052,0,0,1,.068-.069c.1.117.247.212.295.349" transform="translate(-279.767 558.453)" fill="#6e6961"/>
  <path id="Trazado_56" data-name="Trazado 56" d="M324.75-554.15a1.858,1.858,0,0,1-.445.479.065.065,0,0,1-.014-.1c.144-.137.247-.329.425-.411Z" transform="translate(-311.961 558.262)" fill="#6e6961"/>
  <path id="Trazado_57" data-name="Trazado 57" d="M285.134-553.305c0,.021.014.055-.014.069h-.048l-.363-.363.014-.082a2.985,2.985,0,0,1,.411.377" transform="translate(-278.873 557.842)" fill="#6e6961"/>
  <path id="Trazado_58" data-name="Trazado 58" d="M325.42-553.438v.034a3.552,3.552,0,0,1-.507.507.069.069,0,0,1-.034-.082,3.114,3.114,0,0,1,.507-.493Z" transform="translate(-312.467 557.667)" fill="#6e6961"/>
  <path id="Trazado_59" data-name="Trazado 59" d="M283.632-552.986c.151.171.363.315.445.507-.014.034-.048.014-.069.021l-.445-.459a.052.052,0,0,1,.069-.069" transform="translate(-277.912 557.262)" fill="#6e6961"/>
  <path id="Trazado_60" data-name="Trazado 60" d="M326.1-552.657v.048l-.555.575c-.027,0-.069,0-.069-.034v-.048l.541-.562c.034.007.068-.014.082.021" transform="translate(-312.969 557.002)" fill="#6e6961"/>
  <path id="Trazado_61" data-name="Trazado 61" d="M300.6-552.267c.021.041-.034.055-.062.048h-.048c.007-.041.062-.055.11-.048" transform="translate(-292.07 556.66)" fill="#6e6961"/>
  <path id="Trazado_62" data-name="Trazado 62" d="M309.954-552.24c-.027.034-.117.007-.13-.034.055-.014.082.02.13.034" transform="translate(-299.877 556.667)" fill="#6e6961"/>
  <path id="Trazado_63" data-name="Trazado 63" d="M283.15-551.648v.069h-.062l-.514-.527.021-.069.062.021Z" transform="translate(-277.087 556.582)" fill="#6e6961"/>
  <path id="Trazado_64" data-name="Trazado 64" d="M326.684-551.861v.034a5.876,5.876,0,0,1-.685.685c-.034-.021-.014-.062-.021-.1l.623-.644c.034.007.068-.007.082.021" transform="translate(-313.389 556.336)" fill="#6e6961"/>
  <path id="Trazado_65" data-name="Trazado 65" d="M281.729-551.4a6.656,6.656,0,0,1,.609.644v.034h-.082l-.589-.61a.049.049,0,0,1,.062-.069" transform="translate(-276.324 555.932)" fill="#6e6961"/>
  <path id="Trazado_66" data-name="Trazado 66" d="M301.171-551.171c.02.048-.027.048-.048.069h-.048c.007-.048.055-.062.1-.069" transform="translate(-292.56 555.742)" fill="#6e6961"/>
  <path id="Trazado_67" data-name="Trazado 67" d="M327.067-551.137v.048l-.74.788h-.055v-.1l.726-.774c.028,0,.069,0,.069.034" transform="translate(-313.634 555.742)" fill="#6e6961"/>
  <path id="Trazado_68" data-name="Trazado 68" d="M309.521-551.036c-.027.041-.1.007-.116-.027.048-.014.082.014.116.027" transform="translate(-299.527 555.655)" fill="#6e6961"/>
  <path id="Trazado_69" data-name="Trazado 69" d="M300.6-554.517c.021-.041-.034-.055-.062-.048h-.048c.007.041.062.055.11.048" transform="translate(-292.07 558.582)" fill="#6e6961"/>
  <path id="Trazado_70" data-name="Trazado 70" d="M309.954-554.551c-.027-.034-.117-.007-.13.034.055.014.082-.02.13-.034" transform="translate(-299.877 558.582)" fill="#6e6961"/>
  <path id="Trazado_71" data-name="Trazado 71" d="M301.171-555.7c.02-.048-.027-.048-.048-.068h-.048c.007.048.055.062.1.068" transform="translate(-292.56 559.588)" fill="#6e6961"/>
  <path id="Trazado_72" data-name="Trazado 72" d="M309.521-555.74c-.027-.041-.1-.007-.116.027.048.014.082-.014.116-.027" transform="translate(-299.527 559.579)" fill="#6e6961"/>
  <path id="Trazado_73" data-name="Trazado 73" d="M280.774-550.543a8.94,8.94,0,0,1,.692.753c-.014.027-.048.014-.069.014l-.705-.705v-.062Z" transform="translate(-275.512 555.217)" fill="#6e6961"/>
  <path id="Trazado_74" data-name="Trazado 74" d="M327.491-550.354v.048l-.822.87h-.062v-.082l.8-.856c.027.007.068-.007.082.02" transform="translate(-313.914 555.076)" fill="#6e6961"/>
  <path id="Trazado_75" data-name="Trazado 75" d="M301.706-550.166c-.007.069-.082.116-.13.151-.007-.069.075-.13.13-.151" transform="translate(-292.979 554.901)" fill="#6e6961"/>
  <path id="Trazado_76" data-name="Trazado 76" d="M308.687-550.1c.069.007.116.082.151.13-.069.007-.13-.075-.151-.13" transform="translate(-298.926 554.849)" fill="#6e6961"/>
  <path id="Trazado_77" data-name="Trazado 77" d="M305.624-558.69c.044.053.024.14.014.2-.053-.044-.039-.145-.014-.2" transform="translate(-296.346 562.031)" fill="#6e6961"/>
  <path id="Trazado_78" data-name="Trazado 78" d="M305.624-549.128c.044.053.024.14.014.2-.053-.044-.039-.145-.014-.2" transform="translate(-296.346 554.033)" fill="#6e6961"/>
  <path id="Trazado_79" data-name="Trazado 79" d="M280.618-548.979c-.007.034.014.069-.014.082h-.034l-.808-.8c-.007-.041.007-.11.069-.082Z" transform="translate(-274.734 554.584)" fill="#6e6961"/>
  <path id="Trazado_80" data-name="Trazado 80" d="M307.951-549.429a.089.089,0,0,1-.069-.11.089.089,0,0,1,.069.11" transform="translate(-298.251 554.377)" fill="#6e6961"/>
  <path id="Trazado_81" data-name="Trazado 81" d="M304.009-549.036a.089.089,0,0,1,.053-.118.089.089,0,0,1-.053.118" transform="translate(-295.008 554.055)" fill="#6e6961"/>
  <path id="Trazado_82" data-name="Trazado 82" d="M327.866-549.542v.048l-.918.986H326.9v-.1l.9-.952c.021,0,.055-.014.062.014" transform="translate(-314.159 554.394)" fill="#6e6961"/>
  <path id="Trazado_83" data-name="Trazado 83" d="M306.849-548.879v.034c-.041-.014-.055-.068-.048-.116.048-.014.041.055.048.082" transform="translate(-297.348 553.895)" fill="#6e6961"/>
  <path id="Trazado_84" data-name="Trazado 84" d="M279.719-547.966v.069h-.069l-.9-.918c-.02-.062.048-.055.082-.055Z" transform="translate(-273.882 553.818)" fill="#6e6961"/>
  <path id="Trazado_85" data-name="Trazado 85" d="M329.291-548.625l-.014.069-.774.822h-.1l.014-.068c.281-.281.541-.6.843-.856Z" transform="translate(-315.42 553.641)" fill="#6e6961"/>
  <path id="Trazado_86" data-name="Trazado 86" d="M278.861-547.126v.048h-.082l-.808-.8v-.069h.068Z" transform="translate(-273.237 553.047)" fill="#6e6961"/>
  <path id="Trazado_87" data-name="Trazado 87" d="M330.7-547.62l-.034.082-.671.706c-.027,0-.069.014-.082-.014v-.034a8.068,8.068,0,0,1,.753-.774Z" transform="translate(-316.68 552.801)" fill="#6e6961"/>
  <path id="Trazado_88" data-name="Trazado 88" d="M277.236-546.943c.253.254.507.486.726.74-.027.027-.069.014-.1.014l-.692-.685v-.069Z" transform="translate(-272.571 552.206)" fill="#6e6961"/>
  <path id="Trazado_89" data-name="Trazado 89" d="M331.973-546.7v.048c-.212.206-.363.445-.6.637-.027,0-.062.014-.082-.014v-.034a5.539,5.539,0,0,1,.657-.671Z" transform="translate(-317.835 552.031)" fill="#6e6961"/>
  <path id="Trazado_90" data-name="Trazado 90" d="M277.086-545.5v.048H277l-.623-.61.014-.082.069.021Z" transform="translate(-271.906 551.541)" fill="#6e6961"/>
  <path id="Trazado_91" data-name="Trazado 91" d="M333.281-545.543l-.48.507h-.082v-.068l.507-.541h.055Z" transform="translate(-319.026 551.121)" fill="#6e6961"/>
  <path id="Trazado_92" data-name="Trazado 92" d="M334.509-544.607v.048l-.411.445h-.082v-.069c.192-.137.267-.37.479-.459Z" transform="translate(-320.111 550.281)" fill="#6e6961"/>
  <path id="Trazado_93" data-name="Trazado 93" d="M275.407-543.749v.048h-.082l-.459-.459c0-.034-.014-.1.048-.082Z" transform="translate(-270.639 549.95)" fill="#6e6961"/>
  <path id="Trazado_94" data-name="Trazado 94" d="M335.641-543.6c-.041.164-.24.267-.329.411-.027-.007-.069.014-.082-.014.048-.178.246-.281.342-.432.028,0,.075,0,.069.034" transform="translate(-321.126 549.44)" fill="#6e6961"/>
  <path id="Trazado_95" data-name="Trazado 95" d="M274.1-543.053c.13.158.315.254.411.425-.014.027-.055.014-.082.014l-.4-.356c-.007-.041.007-.116.069-.082" transform="translate(-269.937 548.96)" fill="#6e6961"/>
  <path id="Trazado_96" data-name="Trazado 96" d="M336.577-542.584a1.409,1.409,0,0,1-.26.349.092.092,0,0,1-.082-.034.984.984,0,0,1,.329-.363Z" transform="translate(-321.966 548.6)" fill="#6e6961"/>
  <path id="Trazado_97" data-name="Trazado 97" d="M273.721-541.508c-.13.034-.226-.123-.329-.212a.1.1,0,0,1-.048-.116c.158.02.288.206.377.329" transform="translate(-269.364 547.935)" fill="#6e6961"/>
  <path id="Trazado_98" data-name="Trazado 98" d="M337.624-541.286a.562.562,0,0,1-.281.295c-.027-.014-.014-.048-.02-.069.1-.075.178-.3.3-.226" transform="translate(-322.877 547.487)" fill="#6e6961"/>
  <path id="Trazado_99" data-name="Trazado 99" d="M273.033-540.565c-.116.041-.206-.1-.295-.185v-.082c.13.021.233.164.295.267" transform="translate(-268.86 547.095)" fill="#6e6961"/>
  <path id="Trazado_100" data-name="Trazado 100" d="M338.666-540.12c.055.109-.082.185-.151.267-.027.007-.041-.021-.061-.034a.376.376,0,0,1,.212-.233" transform="translate(-323.822 546.5)" fill="#6e6961"/>
  <path id="Trazado_101" data-name="Trazado 101" d="M272.258-539.517c-.11.069-.164-.1-.247-.151a.049.049,0,0,1,.069-.062c.068.055.171.116.178.212" transform="translate(-268.25 546.177)" fill="#6e6961"/>
  <path id="Trazado_102" data-name="Trazado 102" d="M339.494-538.878c.027.069-.048.089-.082.13-.028,0-.062.014-.082-.014-.007-.075.082-.11.117-.164a.035.035,0,0,1,.048.048" transform="translate(-324.555 545.503)" fill="#6e6961"/>
  <path id="Trazado_103" data-name="Trazado 103" d="M271.653-538.357c0,.02.014.055-.014.069-.089.007-.123-.11-.2-.13v-.082c.1-.021.144.1.212.144" transform="translate(-267.775 545.147)" fill="#6e6961"/>
  <path id="Trazado_104" data-name="Trazado 104" d="M340.324-537.826c.041.048.007.1-.027.137h-.069c-.02-.068.027-.151.1-.137" transform="translate(-325.302 544.582)" fill="#6e6961"/>
  <path id="Trazado_105" data-name="Trazado 105" d="M271.09-537.25c-.014.027-.055.007-.082.014-.048-.048-.116-.1-.069-.165a.236.236,0,0,1,.151.151" transform="translate(-267.342 544.225)" fill="#6e6961"/>
  <path id="Trazado_106" data-name="Trazado 106" d="M341.1-536.471c0,.021.014.055-.014.069h-.034v-.082c.021,0,.041-.007.048.014" transform="translate(-325.992 543.46)" fill="#6e6961"/>
  <path id="Trazado_107" data-name="Trazado 107" d="M270.476-536.23v.062c-.034,0-.075.007-.1-.034-.048-.082.075-.109.1-.027" transform="translate(-266.879 543.287)" fill="#6e6961"/>
  <path id="Trazado_108" data-name="Trazado 108" d="M270.143-535.063h.014v-.034h-.014Z" transform="translate(-266.69 542.299)" fill="#6e6961"/>
  <path id="Trazado_109" data-name="Trazado 109" d="M279.7-542.919a2.907,2.907,0,0,0-.836-.973c-.062.048-.062.123-.068.2a5.5,5.5,0,0,1,.6.671,3,3,0,0,1,.226,2.843,3.024,3.024,0,0,1-2.925,1.76,2.955,2.955,0,0,1-1.233,2.63,2.944,2.944,0,0,1-2.959.295,3.04,3.04,0,0,1-1.74-2.891,3.125,3.125,0,0,1-1.808-.493,3,3,0,0,1-1.349-2.534,2.413,2.413,0,0,1,.342-1.233c.075.062,0,.137,0,.2a1.022,1.022,0,0,0,.445.987c.007.1-.116.075-.164.15.151.527.281,1.069.445,1.6l.144.164a.618.618,0,0,0,.493.027c.377-.164.178-.61.233-.9.021-.014.034-.041.068-.027a6.941,6.941,0,0,0,1.13,1.445v.082a2.2,2.2,0,0,0-.575-.267c-.158.014-.363-.1-.473.034a1.839,1.839,0,0,1,.6.233c.623.281,1.11.9,1.712,1.212a5.653,5.653,0,0,1-.705.63.517.517,0,0,0,.048.274.2.2,0,0,0,.164.116c.274-.267.527-.6.808-.87a3.923,3.923,0,0,0,2.151.26,3.952,3.952,0,0,1,.527-.13l.706.644a.281.281,0,0,0,.233-.069c.048-.062.11-.144.062-.226a8.427,8.427,0,0,1-.658-.548,1.085,1.085,0,0,1,.247-.178,4.253,4.253,0,0,1,2.829-1.4c.014-.027-.014-.048-.034-.068a2.242,2.242,0,0,0-1.938.493l-.014-.014c.308-.315.665-.6.986-.918.247-.233.418-.514.637-.74l.034.027a4.289,4.289,0,0,0-.034.6.462.462,0,0,0,.281.294c.171.014.4.062.507-.116.356-.493.267-1.171.4-1.76-.075-.089-.219-.062-.281-.164a1.021,1.021,0,0,0,.431-1.048.628.628,0,0,1-.164-.233c-.363-.137-.185-.589-.562-.719a1.568,1.568,0,0,0-.1-.76c-.185.109-.192.342-.247.527a1.616,1.616,0,0,0-.678,0,1.164,1.164,0,0,0,.247.315c-.021.089-.137.089-.2.164-.1.1-.075.281-.082.411.13.007.24-.185.349-.069a1.373,1.373,0,0,0-.082.377c.055.1.185.014.281.021.206-.281.178.151.342.192.13.1.137-.089.2-.13a.592.592,0,0,1,.082.116c.034.116-.151.075-.212.13a1.437,1.437,0,0,1-.281-.117c-.089.027-.034.164-.048.247.034.144.144.308.027.445-.11-.027-.247,0-.342-.082a2.1,2.1,0,0,0,.069-.541h-.055c-.062.2-.027.432-.178.589-.082,0-.171.075-.247,0-.041-.295.212-.534.1-.87-.048-.048-.014-.157-.1-.164a1.193,1.193,0,0,0-.281.89c.027.069.137.171.048.226a3.422,3.422,0,0,0-2.329,1.514c-.1.13.1.212.027.315a3.6,3.6,0,0,1-.6.226,2.473,2.473,0,0,0,0-1.411h-.055a.975.975,0,0,1-.164.377,1.519,1.519,0,0,0-.11,1.233c-.034.1-.144.089-.2.164-.1.021-.226.206-.294.048a1.676,1.676,0,0,0-.4-1.74c-.219-.075.014.2-.082.315a1.518,1.518,0,0,0,.212,1.295l-.034.048-.356-.226c-.116-.1-.329-.123-.329-.315a3.172,3.172,0,0,0-1.418-1.363c-.233-.2-.856-.062-.705-.589a.846.846,0,0,0-.212-.938c-.027,0-.068-.014-.082.014a1.194,1.194,0,0,0,.13,1.151l-.048.048c-.473.041-.5-.5-.678-.788-.021.007-.048-.014-.062.02a1.708,1.708,0,0,0,.212.637c-.075.089-.219.034-.329.048-.185-.185.069-.4.034-.6-.082-.014-.158.068-.212.014.082-.123.1-.281.192-.4.137.062.151.24.281.267.089-.11.048-.288.034-.411.089-.082.3.02.377-.1a.37.37,0,0,1-.144-.308h.26a.387.387,0,0,0-.13-.281.581.581,0,0,0-.479-.082c-.075-.041-.206.089-.2-.069a1.022,1.022,0,0,0,0-.849c-.007-.363-.4-.486-.589-.76a.052.052,0,0,0-.068.069l.527.527a1.622,1.622,0,0,0-.144.822c.02.082.089.171.062.26a1.347,1.347,0,0,0-.377-.048c-.055.007-.164.061-.178-.021a1.593,1.593,0,0,1,.329-.274.6.6,0,0,0-.034-.2,1.382,1.382,0,0,0-.514.342,3.2,3.2,0,0,0-.822,3.4,3.236,3.236,0,0,0,2.466,2.055,1.652,1.652,0,0,1,.493.082,3.3,3.3,0,0,0,1.233,2.452,3.282,3.282,0,0,0,3.075.473,3.2,3.2,0,0,0,2.02-2.514c.055-.158-.041-.37.082-.493a3.214,3.214,0,0,0,2.7-1.562,3.309,3.309,0,0,0,.048-3.137m-1.891-.219c-.007-.034,0-.117.069-.13.041-.021.034.027.048.048a.126.126,0,0,1-.117.082m.117-.541c.007-.041.151-.062.13.021-.014.041.027.068.048.1-.062.027-.144-.055-.178-.117m.2.9h-.034v-.048h.034Zm.363.151c-.027-.027-.1-.082-.055-.13.055-.021.068.027.068.062s.014.055-.014.069m-8.747-.267c-.041-.02-.1-.02-.117-.062l.117.014Zm.144-.377a.369.369,0,0,1-.274.068.042.042,0,0,0-.02-.034c.068-.137.206-.1.295-.034m-.295.61c.007.02-.014.055.02.068-.014.021-.034.014-.055.014l-.13-.151c.069-.123.123.028.164.069m-1.349.87a.665.665,0,0,1-.11-.61,1.108,1.108,0,0,1,.507.6.743.743,0,0,1-.034.247c-.13.034-.267-.109-.363-.233m1.151,2.007c-.041.137-.192.171-.308.2-.452,0-.39-.507-.514-.788.034-.075.123-.075.2-.082.082.11.041.281.1.411.137-.014.315-.069.438.048a.186.186,0,0,1,.082.212m-.425-.4a.329.329,0,0,1-.048-.308,1.172,1.172,0,0,1,.507-.034,2.843,2.843,0,0,1,.021.425.681.681,0,0,0-.479-.082m.788-.308c.041-.1.206-.027.295-.034.082.014.164.027.2.116a6.8,6.8,0,0,0,1.363,1.89c-.11.014-.206-.11-.308-.164a6.055,6.055,0,0,1-1.548-1.808m.658.1c.082-.055.219.021.315.069l.342.692c.151.274.377.521.562.788v.1h-.069a6.606,6.606,0,0,1-1.151-1.644m.938,1.959c.082-.014.164.075.247.117a.1.1,0,0,1,.048.1c-.117.027-.2-.144-.295-.212m.281-.705h-.048a5.469,5.469,0,0,1-.61-1.007l.034-.048a1.534,1.534,0,0,1,.836,1.082c-.082.014-.137-.13-.212-.027m.507,1.589c-.205.2-.349.431-.555.61-.048-.055-.1-.123-.021-.178a3.615,3.615,0,0,1,.6-.493Zm3.685.431c0,.055-.069.082-.1.13h-.082c-.151-.192-.37-.308-.493-.507,0-.055.075-.041.1-.021.192.13.384.267.575.4m.082-1.151v.048a3,3,0,0,1-3.027.706,3.533,3.533,0,0,1-1.082-.527c.109-.075.226.144.377.068-.007-.171-.219-.123-.26-.233.089.014.164.151.26.055-.089-.089.116-.233-.082-.281l.13-.021c-.055-.164-.253-.205-.377-.308l-.082-.1c.007-.007.021-.014.014-.027h.055a2.843,2.843,0,0,0,2.877.555,3.192,3.192,0,0,0,1.2-.884c.048,0,.034.062.014.082-.123.206-.4.295-.445.541.041.034.082,0,.116-.021,0,.069-.123.123-.034.185.089-.007.144-.089.219-.13-.014.1-.205.144-.137.26a1.759,1.759,0,0,0,.432-.329l.014.014-.39.384v.062c.082.048.144-.062.212-.1m-4.075-.315c.082-.014.164.082.247.116-.082.014-.164-.075-.247-.116m3.877-.623a2.074,2.074,0,0,1,.658-.822,1.653,1.653,0,0,1,.281-.164c-.021.158-.164.295-.247.445-.117.123-.185.3-.349.377,0-.027-.027-.048-.048-.068-.144,0-.171.178-.295.233m.26.26c-.007.021-.027.021-.048.021.021-.021.027-.055.048-.021m.137-.212a6.444,6.444,0,0,0,.8-1.185,1.156,1.156,0,0,1,.4-.144v.062a6.984,6.984,0,0,1-1.151,1.315Zm1.774-1.349a6.68,6.68,0,0,1-1.664,1.678.119.119,0,0,1,.02-.164,7.375,7.375,0,0,0,1.267-1.493.5.5,0,0,1,.377-.1Zm1.069.431c-.055.151-.082.329-.233.425a.407.407,0,0,1-.377.02.24.24,0,0,1-.13-.281.316.316,0,0,1,.178-.185c.13-.082.233.1.349,0,.041-.076-.02-.2.062-.26.1.055.226.144.151.281m-.76-.1c.014-.123-.02-.315.069-.411a1.068,1.068,0,0,1,.411.185c.089.37-.315.027-.424.226Zm1.1-2.185a.522.522,0,0,1-.226.479h-.034c-.041-.192.041-.452.26-.479m-.507-.26c-.014-.041.041-.062.082-.048s-.014.062-.02.1c-.027,0-.041-.034-.062-.048m.034.329c.007.021.027.014.048.014.24-.055.048-.493.363-.329-.048.13-.206.171-.267.295-.117.219-.034.527-.2.712-.048-.048-.13-.02-.178-.082a4.023,4.023,0,0,1,.233-.61m-.363.164c.034.014.1.055.048.1a.062.062,0,0,1-.082-.048c-.014-.041.02-.021.034-.048m-1.021-.281c.021-.062.1-.027.1.014a1.266,1.266,0,0,1-.13.384c-.137-.116.048-.26.034-.4m-1.315,1.3a3.286,3.286,0,0,1,2.993-.247l.034.048c-.055.295-.089.6-.164.884-.1,0-.233-.11-.349-.164a2.571,2.571,0,0,0-2.363.493,3.425,3.425,0,0,0-.692.795h-.048l-.466-.74a2.25,2.25,0,0,1,1.055-1.069m-1.034,1.411a2.126,2.126,0,0,1,.329.479l-.034.027h-1.185c.007-.014-.007-.021-.014-.027a4.246,4.246,0,0,1,.9-.479m-.774-.822c.089-.014.027.082.068.116a1.815,1.815,0,0,1-.151.822c-.123-.027-.1-.178-.151-.267a1.782,1.782,0,0,1,.233-.671m-.363,1.514a7.309,7.309,0,0,1,1.5.034v.027a2.559,2.559,0,0,1-.938.548l-.082-.02-.623-.473c-.055-.089.089-.1.144-.117m-.363.226a2.907,2.907,0,0,1,.466.411c.007.109-.137.068-.2.1a1.341,1.341,0,0,1-.705-.117,2.41,2.41,0,0,1,.438-.4m-.308-.986c-.074-.043-.059-.148-.076-.234a.025.025,0,0,1-.007-.027.212.212,0,0,1,.007.027l.007.008.021-.021c-.014.041.082.164.048.247m-.082-.555c.028-.069,0-.192.082-.212l.13.192a.949.949,0,0,1,.048.925c-.075.014-.055-.082-.082-.117a.744.744,0,0,0-.082-.788Zm.117,1.411v.034c-.247.117-.452.63-.76.295-.069-.062-.2-.082-.212-.178a6.811,6.811,0,0,1,.973-.151m-.151-.226v.048l-1.082.2c-.048-.041-.144-.069-.082-.151a4.878,4.878,0,0,1,.438-.541,4.218,4.218,0,0,1,.726.445M270.2-542.07a.706.706,0,0,1,.014-.377.619.619,0,0,1,.116.6c-.1-.021-.082-.144-.13-.219m1.726,1.582a2.428,2.428,0,0,1,.493.671,2.411,2.411,0,0,1-.445.541,2.4,2.4,0,0,0-2.253-1.4,4.335,4.335,0,0,0-1.13.1,2.041,2.041,0,0,1-.233-.678,3.435,3.435,0,0,1,3.568.76m-2.712-1.466c-.021.027-.021.082-.069.082l-.062-.062c.034-.034.1-.089.13-.02m.034-2.2c.021-.021.021-.075.062-.055,0,.144.082.295-.014.411-.1-.055-.069-.247-.048-.356m-.185,1.479a.425.425,0,0,0,.068.1h.1a.205.205,0,0,1-.048.178c-.082-.041-.1-.164-.144-.247Zm-.13.226c.027.1.123.171.13.281l-.192.014c-.082.226.206.349.164.562-.062.048-.144.041-.219.069l-.027-.034a.9.9,0,0,0-.219-.726,3.441,3.441,0,0,0,.363-.165m-.226-.116v-.082c.027-.007.041.021.062.034.021.048-.027.034-.048.048Zm-.02-.8c.068,0,.082.048.116.1-.027.055-.116,0-.164-.034-.021-.041.034-.041.048-.062m.048.411a.325.325,0,0,1-.26.082c-.007-.027.089-.1.151-.117.041-.014.075.014.11.034m-.356-.329c-.014.137.171.041.212.13l.014.014a1.378,1.378,0,0,1-.459.2.557.557,0,0,1,.233-.343m-.185.459c.1.055.233.014.315.1-.007.123.021.281-.082.329l-.4-.39c.027-.13.082-.123.164-.034m.363,1.165a.414.414,0,0,1-.281-.308c-.014-.048.041-.082.082-.069a.62.62,0,0,1,.2.377" transform="translate(-264.399 550.716)" fill="#6e6961"/>
  <path id="Trazado_110" data-name="Trazado 110" d="M342.178-509.355l.014.027v-.027Z" transform="translate(-326.937 520.769)" fill="#6e6961"/>
  <path id="Trazado_111" data-name="Trazado 111" d="M341.6-508.56c0,.02.014.055-.014.062h-.034v-.062Z" transform="translate(-326.412 520.104)" fill="#6e6961"/>
  <path id="Trazado_112" data-name="Trazado 112" d="M270.726-508.164a.092.092,0,0,1-.034.082h-.048c0-.041-.007-.082.034-.1.014,0,.041,0,.048.021" transform="translate(-267.108 519.79)" fill="#6e6961"/>
  <path id="Trazado_113" data-name="Trazado 113" d="M340.676-507.519l-.014.082a.174.174,0,0,1-.116-.069v-.062a.116.116,0,0,1,.13.048" transform="translate(-325.572 519.275)" fill="#6e6961"/>
  <path id="Trazado_114" data-name="Trazado 114" d="M271.264-507.247c.014.055-.048.075-.082.116-.021-.007-.048.007-.062-.02-.027-.062.055-.082.082-.13.027-.014.041.014.062.034" transform="translate(-267.502 519.038)" fill="#6e6961"/>
  <path id="Trazado_115" data-name="Trazado 115" d="M339.858-506.552c0,.028.014.069-.014.082a.366.366,0,0,1-.178-.13c.007-.151.144-.007.192.048" transform="translate(-324.836 518.521)" fill="#6e6961"/>
  <path id="Trazado_116" data-name="Trazado 116" d="M271.892-506.346c.007.089-.1.13-.151.2h-.048c-.041-.11.089-.144.13-.212.021,0,.055-.014.069.014" transform="translate(-267.98 518.267)" fill="#6e6961"/>
  <path id="Trazado_117" data-name="Trazado 117" d="M338.914-505.6c-.11.034-.178-.123-.26-.185-.014-.055.062-.082.1-.048.055.075.178.123.164.233" transform="translate(-323.989 517.836)" fill="#6e6961"/>
  <path id="Trazado_118" data-name="Trazado 118" d="M272.529-505.551a.61.61,0,0,1-.247.247c-.068-.117.11-.178.164-.26.027,0,.062-.014.082.014" transform="translate(-268.467 517.602)" fill="#6e6961"/>
  <path id="Trazado_119" data-name="Trazado 119" d="M338.113-504.728c0,.034-.014.082-.069.062-.068-.109-.26-.151-.233-.294.13.007.2.151.3.233" transform="translate(-323.283 517.094)" fill="#6e6961"/>
  <path id="Trazado_120" data-name="Trazado 120" d="M273.175-504.752a.569.569,0,0,1-.315.329c-.027-.014-.014-.048-.014-.069.109-.082.185-.247.329-.26" transform="translate(-268.948 516.919)" fill="#6e6961"/>
  <path id="Trazado_121" data-name="Trazado 121" d="M336.905-504.032v.048c-.171.007-.274-.185-.4-.308-.02-.062.048-.048.082-.048Z" transform="translate(-322.192 516.576)" fill="#6e6961"/>
  <path id="Trazado_122" data-name="Trazado 122" d="M273.931-504.1a2.886,2.886,0,0,1-.377.342c-.027-.014-.014-.048-.021-.082.164-.109.2-.3.4-.329Z" transform="translate(-269.525 516.429)" fill="#6e6961"/>
  <path id="Trazado_123" data-name="Trazado 123" d="M335.518-503.664a1.769,1.769,0,0,1,.377.411c-.185,0-.308-.253-.473-.356-.02-.075.062-.048.1-.055" transform="translate(-321.284 516.009)" fill="#6e6961"/>
  <path id="Trazado_124" data-name="Trazado 124" d="M274.69-503.456a3.706,3.706,0,0,1-.425.39c-.034-.014-.014-.048-.021-.082a2.3,2.3,0,0,1,.445-.39Z" transform="translate(-270.121 515.904)" fill="#6e6961"/>
  <path id="Trazado_125" data-name="Trazado 125" d="M334.841-502.732c-.007.027.007.069-.02.082h-.048c-.151-.171-.322-.288-.479-.459a.052.052,0,0,1,.069-.069Z" transform="translate(-320.34 515.605)" fill="#6e6961"/>
  <path id="Trazado_126" data-name="Trazado 126" d="M275.568-502.779a3.139,3.139,0,0,1-.507.493c-.027-.021-.014-.055-.021-.082l.445-.459h.082Z" transform="translate(-270.786 515.309)" fill="#6e6961"/>
  <path id="Trazado_127" data-name="Trazado 127" d="M333.656-502.006c-.007.027.014.061-.021.082h-.027a4.543,4.543,0,0,1-.6-.61h.1Z" transform="translate(-319.271 515.063)" fill="#6e6961"/>
  <path id="Trazado_128" data-name="Trazado 128" d="M276.481-502.276l-.541.555c-.02,0-.055.014-.061-.014a3.348,3.348,0,0,1,.541-.589h.062Z" transform="translate(-271.487 514.888)" fill="#6e6961"/>
  <path id="Trazado_129" data-name="Trazado 129" d="M331.88-502.157c.226.178.411.438.63.63v.062h-.069l-.644-.637v-.055Z" transform="translate(-318.255 514.749)" fill="#6e6961"/>
  <path id="Trazado_130" data-name="Trazado 130" d="M277.54-501.774l-.61.657h-.048v-.1l.575-.6h.082Z" transform="translate(-272.326 514.468)" fill="#6e6961"/>
  <path id="Trazado_131" data-name="Trazado 131" d="M331.095-501.089v.062h-.062l-.76-.753c-.021-.062.055-.048.082-.048Z" transform="translate(-316.977 514.475)" fill="#6e6961"/>
  <path id="Trazado_132" data-name="Trazado 132" d="M278.418-501.481a7,7,0,0,1-.74.753v-.1l.671-.706h.069Z" transform="translate(-272.992 514.223)" fill="#6e6961"/>
  <path id="Trazado_133" data-name="Trazado 133" d="M328.989-501.445a9.114,9.114,0,0,1,.836.87c.007.027-.021.034-.034.055h-.027l-.856-.891c-.007-.048.055-.027.082-.034" transform="translate(-315.837 514.153)" fill="#6e6961"/>
  <path id="Trazado_134" data-name="Trazado 134" d="M328.158-500.333c0,.028.014.062-.014.082H328.1l-.986-1.007v-.062h.062Z" transform="translate(-314.334 514.048)" fill="#6e6961"/>
  <path id="Trazado_135" data-name="Trazado 135" d="M279.273-501.118c-.274.281-.555.616-.856.87-.014.007-.021-.007-.027-.014v-.048l.788-.842h.1Z" transform="translate(-273.587 513.908)" fill="#6e6961"/>
  <path id="Trazado_136" data-name="Trazado 136" d="M280.346-500.875a11.6,11.6,0,0,1-.952.966v-.1l.883-.938h.069Z" transform="translate(-274.427 513.734)" fill="#6e6961"/>
  <path id="Trazado_137" data-name="Trazado 137" d="M327.852-499.034v.048h-.1l-.856-.87v-.082h.048Z" transform="translate(-314.159 512.893)" fill="#6e6961"/>
  <path id="Trazado_138" data-name="Trazado 138" d="M281.025-499.4l-.774.836c-.02-.007-.048.014-.062-.014v-.055c.26-.3.562-.616.836-.884Z" transform="translate(-275.092 512.543)" fill="#6e6961"/>
  <path id="Trazado_139" data-name="Trazado 139" d="M327.418-497.676c-.007.034.014.069-.014.082h-.055l-.767-.788c-.014-.041,0-.109.062-.082Z" transform="translate(-313.889 511.665)" fill="#6e6961"/>
  <path id="Trazado_140" data-name="Trazado 140" d="M281.916-497.848a5.451,5.451,0,0,1-.726.76c-.027-.014-.014-.048-.014-.069l.692-.774h.048Z" transform="translate(-275.915 511.213)" fill="#6e6961"/>
  <path id="Trazado_141" data-name="Trazado 141" d="M326.34-497.008a9.719,9.719,0,0,1,.692.719v.02h-.117l-.644-.658v-.082Z" transform="translate(-313.634 510.442)" fill="#6e6961"/>
  <path id="Trazado_142" data-name="Trazado 142" d="M282.633-496.515l-.575.623h-.068v-.062l.61-.678h.048Z" transform="translate(-276.597 510.127)" fill="#6e6961"/>
  <path id="Trazado_143" data-name="Trazado 143" d="M325.93-495.711a7.317,7.317,0,0,1,.6.623v.048l-.1-.014-.541-.541v-.116Z" transform="translate(-313.319 509.357)" fill="#6e6961"/>
  <path id="Trazado_144" data-name="Trazado 144" d="M283.467-495.3a3.962,3.962,0,0,1-.562.562c-.027-.014-.014-.048-.014-.069a8.113,8.113,0,0,1,.575-.61Z" transform="translate(-277.35 509.112)" fill="#6e6961"/>
  <path id="Trazado_145" data-name="Trazado 145" d="M325.954-493.908c0,.021,0,.069-.034.062h-.048l-.493-.473c0-.041-.02-.117.048-.1Z" transform="translate(-312.884 508.28)" fill="#6e6961"/>
  <path id="Trazado_146" data-name="Trazado 146" d="M284.407-493.9l-.411.445c-.034-.007-.069.014-.082-.014a2.789,2.789,0,0,1,.459-.527h.048Z" transform="translate(-278.207 507.922)" fill="#6e6961"/>
  <path id="Trazado_147" data-name="Trazado 147" d="M324.82-493.208c.137.178.37.281.438.493-.007.027-.041.014-.062.014l-.432-.411c.007-.034-.02-.11.055-.1" transform="translate(-312.374 507.265)" fill="#6e6961"/>
  <path id="Trazado_148" data-name="Trazado 148" d="M285.344-492.825l-.363.4c-.02-.007-.055.014-.062-.02v-.048c.144-.137.247-.329.425-.411Z" transform="translate(-279.048 507.012)" fill="#6e6961"/>
  <path id="Trazado_149" data-name="Trazado 149" d="M324.134-492c.11.13.281.24.342.39-.014.034-.055.014-.082.021l-.342-.349c-.034-.062.041-.068.082-.062" transform="translate(-311.77 506.253)" fill="#6e6961"/>
  <path id="Trazado_150" data-name="Trazado 150" d="M297.58-494.683a1.525,1.525,0,0,0-1.527-.164,1.282,1.282,0,0,0,.9.329c.13.109-.123.205-.13.329a.645.645,0,0,0,0,.425c.342-.007.548-.4.637-.671.02-.089.151-.137.116-.247m-1.13-.082c.014-.089.151-.1.247-.117a1.064,1.064,0,0,1,.6.164c-.027.082-.151.055-.226.082a1.322,1.322,0,0,1-.623-.13m.541.822c-.027-.007-.041.027-.068.014a.639.639,0,0,1,.4-.541c-.041.185-.1.445-.329.527" transform="translate(-288.359 508.741)" fill="#6e6961"/>
  <path id="Trazado_151" data-name="Trazado 151" d="M286.439-491.776a.854.854,0,0,1-.349.411c0-.164.185-.281.3-.411Z" transform="translate(-280.027 506.067)" fill="#6e6961"/>
  <path id="Trazado_152" data-name="Trazado 152" d="M323.716-490.719v.069c-.164,0-.212-.2-.343-.281-.007-.041,0-.11.062-.082Z" transform="translate(-311.208 505.433)" fill="#6e6961"/>
  <path id="Trazado_153" data-name="Trazado 153" d="M287.473-490.743a.564.564,0,0,1-.281.295c-.041-.144.157-.226.226-.343a.04.04,0,0,1,.055.048" transform="translate(-280.944 505.245)" fill="#6e6961"/>
  <path id="Trazado_154" data-name="Trazado 154" d="M322.954-489.66v.061c-.137.021-.192-.137-.281-.212v-.082c.137,0,.171.164.281.233" transform="translate(-310.624 504.491)" fill="#6e6961"/>
  <path id="Trazado_155" data-name="Trazado 155" d="M288.446-489.741a.343.343,0,0,1-.226.247c-.014-.1.109-.226.212-.274Z" transform="translate(-281.808 504.387)" fill="#6e6961"/>
  <path id="Trazado_156" data-name="Trazado 156" d="M322.007-488.746c-.014.034-.055.014-.082.02-.062-.075-.192-.144-.13-.247.11.014.178.137.212.226" transform="translate(-309.876 503.722)" fill="#6e6961"/>
  <path id="Trazado_157" data-name="Trazado 157" d="M289.609-488.748a.257.257,0,0,1-.13.185h-.048c-.014-.1.068-.151.13-.212.021-.007.055,0,.048.027" transform="translate(-282.821 503.559)" fill="#6e6961"/>
  <path id="Trazado_158" data-name="Trazado 158" d="M321.142-487.9c-.007.021.007.048-.02.062-.082,0-.1-.062-.164-.116v-.062c.1-.041.144.062.185.116" transform="translate(-309.189 502.929)" fill="#6e6961"/>
  <path id="Trazado_159" data-name="Trazado 159" d="M290.814-487.677c.048.048-.021.1-.055.13H290.7c-.034-.075.055-.137.117-.13" transform="translate(-283.874 502.639)" fill="#6e6961"/>
  <path id="Trazado_160" data-name="Trazado 160" d="M320.176-487.126v.048c-.055,0-.1,0-.13-.048-.041-.117.13-.075.13,0" transform="translate(-308.421 502.238)" fill="#6e6961"/>
  <path id="Trazado_161" data-name="Trazado 161" d="M292.172-486.754c.007.028,0,.055-.027.048h-.055c-.027-.062.055-.082.082-.048" transform="translate(-285.041 501.88)" fill="#6e6961"/>
  <path id="Trazado_162" data-name="Trazado 162" d="M319.4-486.168c0,.014.007.041-.014.048s-.041-.021-.034-.048Z" transform="translate(-307.846 501.376)" fill="#6e6961"/>
  <path id="Trazado_163" data-name="Trazado 163" d="M293.123-486.135h.02v-.034h-.02Z" transform="translate(-285.909 501.377)" fill="#6e6961"/>
  <path id="Trazado_164" data-name="Trazado 164" d="M282.027-482.365l.214.111-.057.11c-.046.089-.037.165.049.21.113.059.176.006.221-.081.059-.114.072-.154-.052-.461a.609.609,0,0,1-.038-.539c.114-.22.281-.254.515-.133a.45.45,0,0,1,.212.2.225.225,0,0,1-.026.2l-.066.127-.2-.1.055-.106a.12.12,0,0,0-.057-.183c-.088-.046-.151-.024-.2.08s-.055.158.05.439c.112.3.116.384.032.546a.334.334,0,0,1-.521.15c-.2-.1-.294-.245-.207-.412Z" transform="translate(-276.533 498.909)" fill="#6e6961"/>
  <path id="Trazado_165" data-name="Trazado 165" d="M287.777-480.825l.265.09-.152,1.548-.228-.078.049-.391-.356-.121-.2.34-.228-.078Zm-.332.893.29.1.093-.739,0,0Z" transform="translate(-280.727 496.907)" fill="#6e6961"/>
  <path id="Trazado_166" data-name="Trazado 166" d="M294.746-479.548l.328.057.064,1.289h0l.217-1.24.224.039-.261,1.492-.342-.06-.058-1.321h0l-.223,1.273-.209-.036Z" transform="translate(-287.048 495.84)" fill="#6e6961"/>
  <path id="Trazado_167" data-name="Trazado 167" d="M301.424-478.634l.82.032-.007.176-.289-.011-.052,1.337-.241-.009.052-1.337-.289-.011Z" transform="translate(-292.846 495.075)" fill="#6e6961"/>
  <path id="Trazado_168" data-name="Trazado 168" d="M307.633-477.721c.016.175-.048.36-.375.389s-.424-.141-.44-.316l-.1-1.168.24-.022.108,1.2c.009.1.057.151.182.14s.161-.067.152-.17l-.108-1.2.24-.022Z" transform="translate(-297.276 495.288)" fill="#6e6961"/>
  <path id="Trazado_169" data-name="Trazado 169" d="M312.347-479.589l.364-.085c.343-.08.4-.008.472.315.046.2.035.291-.145.387v0c.163-.023.234.036.266.175l.074.321a.9.9,0,0,0,.058.185l-.221.051a.231.231,0,0,1-.059-.126l-.077-.333c-.032-.139-.069-.169-.224-.133l-.08.019.149.642-.235.055Zm.389.607L312.8-479c.186-.043.2-.08.153-.3s-.07-.236-.215-.2l-.113.026Z" transform="translate(-301.987 495.969)" fill="#6e6961"/>
  <path id="Trazado_170" data-name="Trazado 170" d="M318.041-480.854a.354.354,0,0,1,.241-.517c.223-.084.364-.026.424.133l.053.141-.212.08-.037-.1c-.034-.09-.092-.134-.187-.1-.117.044-.112.126-.048.3l.262.695c.063.167.135.173.207.146s.118-.1.074-.221l-.037-.1.212-.08.059.157c.056.149.029.289-.232.388-.285.107-.427.011-.51-.209Z" transform="translate(-306.717 497.396)" fill="#6e6961"/>
  <path id="Trazado_171" data-name="Trazado 171" d="M322.072-483.615l.581-.306.082.156-.367.193.221.419.346-.182.082.156-.346.182.239.453.367-.193.082.156-.58.306Z" transform="translate(-310.121 499.497)" fill="#6e6961"/>
  <path id="Trazado_172" data-name="Trazado 172" d="M274.218-486.833a.248.248,0,0,1-.248.248.248.248,0,0,1-.248-.248.248.248,0,0,1,.248-.248.248.248,0,0,1,.248.248" transform="translate(-269.683 502.14)" fill="#6e6961"/>
  <path id="Trazado_173" data-name="Trazado 173" d="M336.305-487.252a.248.248,0,0,1-.248.248.248.248,0,0,1-.248-.248.248.248,0,0,1,.248-.248.248.248,0,0,1,.248.248" transform="translate(-321.61 502.49)" fill="#6e6961"/>
  <path id="Trazado_174" data-name="Trazado 174" d="M277.281-521.331l.081-.009c.082-.009.092.022.1.143l.014.125c.012.107,0,.143-.081.151l-.073.008Zm.09.364.024,0c.037,0,.042-.027.034-.1l-.016-.143c-.007-.062-.014-.082-.057-.078l-.02,0Z" transform="translate(-272.66 530.794)" fill="#6e6961"/>
  <path id="Trazado_175" data-name="Trazado 175" d="M279.568-521.459h.059l.075.42h-.051l-.017-.107h-.079l-.017.107h-.051Zm-.005.264h.064l-.032-.2h0Z" transform="translate(-274.506 530.892)" fill="#6e6961"/>
  <path id="Trazado_176" data-name="Trazado 176" d="M281.72-521.4l.07.007.026.354h0l.033-.348.047,0-.04.419-.073-.007-.025-.363h0l-.034.357-.044,0Z" transform="translate(-276.339 530.844)" fill="#6e6961"/>
  <path id="Trazado_177" data-name="Trazado 177" d="M284.016-521.143l.169.032-.009.048-.06-.011-.068.365-.05-.009.068-.365-.06-.011Z" transform="translate(-278.278 530.627)" fill="#6e6961"/>
  <path id="Trazado_178" data-name="Trazado 178" d="M285.522-520.293l.049.013.108-.406-.049-.013Z" transform="translate(-279.552 530.256)" fill="#6e6961"/>
  <path id="Trazado_179" data-name="Trazado 179" d="M289.414-519.051l.069.041-.125.3h0l.2-.251.067.04-.216.36-.041-.025.195-.324h0l-.239.3-.043-.026.146-.354h0l-.195.324-.038-.023Z" transform="translate(-282.626 528.878)" fill="#6e6961"/>
  <path id="Trazado_180" data-name="Trazado 180" d="M291.532-517.479l.039.032-.264.327-.039-.032Z" transform="translate(-284.358 527.563)" fill="#6e6961"/>
  <path id="Trazado_181" data-name="Trazado 181" d="M292.525-516.422l.035.037-.132.123.046.049.132-.124.035.037-.307.288-.035-.037.139-.13-.046-.049-.139.131-.035-.037Z" transform="translate(-285.153 526.679)" fill="#6e6961"/>
  <path id="Trazado_182" data-name="Trazado 182" d="M293.813-514.534l.026.043-.359.219-.026-.043Z" transform="translate(-286.186 525.1)" fill="#6e6961"/>
  <path id="Trazado_183" data-name="Trazado 183" d="M297.57-502.744l.047.019-.013.032c-.01.026-.008.046.01.053s.039-.007.049-.032.016-.044-.01-.119a.183.183,0,0,1-.007-.141c.026-.064.063-.081.114-.06a.08.08,0,0,1,.046.044.073.073,0,0,1-.006.055l-.015.037-.044-.018.012-.031c.009-.022.006-.038-.012-.046s-.033,0-.045.031-.013.045.01.114a.168.168,0,0,1,.006.143c-.025.061-.059.088-.115.065a.069.069,0,0,1-.045-.1Z" transform="translate(-289.607 515.455)" fill="#6e6961"/>
  <path id="Trazado_184" data-name="Trazado 184" d="M299.334-502.348l.056.019-.065.422-.048-.016.019-.107-.075-.026-.05.1-.048-.016Zm-.091.248.061.021.036-.2h0Z" transform="translate(-290.927 514.908)" fill="#6e6961"/>
  <path id="Trazado_185" data-name="Trazado 185" d="M301.309-501.874l.081.022c.066.018.073.043.047.136s-.044.111-.111.092l-.032-.009-.049.176-.049-.013Zm0,.2.025.007c.033.009.038,0,.055-.057s.015-.068-.018-.077l-.025-.007Z" transform="translate(-292.662 514.511)" fill="#6e6961"/>
  <path id="Trazado_186" data-name="Trazado 186" d="M303.053-501.024l.05.011.087-.411-.049-.011Z" transform="translate(-294.215 514.145)" fill="#6e6961"/>
  <path id="Trazado_187" data-name="Trazado 187" d="M304.362-501.233l.137.017-.006.049-.086-.011-.017.131.081.01-.006.048-.082-.01-.018.141.087.011-.006.049-.137-.017Z" transform="translate(-295.265 513.976)" fill="#6e6961"/>
  <path id="Trazado_188" data-name="Trazado 188" d="M306.091-501.123h.07l.068.348h0l-.008-.349h.048l.009.42-.073,0-.068-.357h0l.008.359H306.1Z" transform="translate(-296.756 513.887)" fill="#6e6961"/>
  <path id="Trazado_189" data-name="Trazado 189" d="M308.227-501.309l.171-.021.006.049-.06.007.045.369-.05.006-.045-.369-.06.007Z" transform="translate(-298.542 514.056)" fill="#6e6961"/>
  <path id="Trazado_190" data-name="Trazado 190" d="M310.3-501.573l.088.411.05-.011-.088-.411Z" transform="translate(-300.279 514.269)" fill="#6e6961"/>
  <path id="Trazado_191" data-name="Trazado 191" d="M312.09-502.075l.056-.018.2.376-.048.016-.049-.1-.075.025.017.107-.048.016Zm.077.253.061-.02-.093-.183h0Z" transform="translate(-301.772 514.695)" fill="#6e6961"/>
  <path id="Trazado_192" data-name="Trazado 192" d="M313.814-503.21l.072-.037.189.263h0l-.106-.306.07-.036.193.373-.042.022-.174-.336h0l.128.36-.045.023-.224-.31h0l.174.336-.04.02Z" transform="translate(-303.215 515.727)" fill="#6e6961"/>
  <path id="Trazado_193" data-name="Trazado 193" d="M302.98-556.576a.638.638,0,0,1-.638.638.638.638,0,0,1-.638-.638.638.638,0,0,1,.638-.638.638.638,0,0,1,.638.638" transform="translate(-293.086 560.796)" fill="#6e6961"/>
  <path id="Trazado_194" data-name="Trazado 194" d="M315.448-514.729l.056-.059c.056-.06.084-.043.173.041l.091.086c.078.074.091.109.037.167l-.05.053Zm.305.218.016-.018c.026-.027.014-.048-.038-.1l-.105-.1c-.045-.043-.064-.053-.094-.022l-.014.015Z" transform="translate(-304.582 525.343)" fill="#6e6961"/>
  <path id="Trazado_195" data-name="Trazado 195" d="M317.249-516.211l.044-.038.331.27-.038.033-.083-.07-.06.052.057.092-.038.033Zm.169.2.049-.042-.156-.133h0Z" transform="translate(-306.088 526.535)" fill="#6e6961"/>
  <path id="Trazado_196" data-name="Trazado 196" d="M318.646-517.511l.072-.051c.051-.036.074-.022.118.041s.046.085.021.109h0c.038-.016.054-.008.1.05.053.074.061.1,0,.146l-.065.046Zm.146.117.024-.017c.025-.018.023-.025-.017-.081-.028-.039-.04-.045-.066-.026l-.019.014Zm.113.158.025-.018c.024-.017.022-.028-.017-.082s-.046-.057-.069-.04l-.027.019Z" transform="translate(-307.256 527.65)" fill="#6e6961"/>
  <path id="Trazado_197" data-name="Trazado 197" d="M320.52-518.511c-.03-.051-.042-.1.017-.139s.094-.01.127.046l.108.183c.03.05.042.1-.018.139s-.094.01-.127-.046Zm.154.16c.018.031.04.04.058.03s.021-.035,0-.066l-.112-.19c-.021-.036-.041-.046-.061-.034s-.02.034,0,.07Z" transform="translate(-308.803 528.555)" fill="#6e6961"/>
  <path id="Trazado_198" data-name="Trazado 198" d="M325.8-520.892l.049-.015.107.356.081-.025.014.047-.13.039Z" transform="translate(-313.238 530.43)" fill="#6e6961"/>
  <path id="Trazado_199" data-name="Trazado 199" d="M327.811-521.346c-.011-.058,0-.112.063-.125s.092.022.1.086l.041.209c.011.058,0,.112-.063.125s-.092-.022-.1-.086Zm.091.2c.007.035.025.051.045.047s.031-.026.024-.061l-.043-.217c-.008-.04-.024-.057-.046-.052s-.031.026-.023.066Z" transform="translate(-314.918 530.905)" fill="#6e6961"/>
  <path id="Trazado_200" data-name="Trazado 200" d="M329.99-521.748l.078-.006c.074-.006.083.016.09.108,0,.056,0,.081-.04.1h0c.035,0,.048.021.051.06l.007.091a.327.327,0,0,0,.007.053l-.047,0a.081.081,0,0,1-.009-.037l-.008-.095c0-.039-.01-.049-.044-.047h-.017l.015.182-.051,0Zm.066.184h.013c.04,0,.045-.012.04-.075s-.008-.068-.04-.065l-.024,0Z" transform="translate(-316.743 531.14)" fill="#6e6961"/>
  <path id="Trazado_201" data-name="Trazado 201" d="M332.149-521.386l.051,0,.012-.42h-.051Z" transform="translate(-318.549 531.183)" fill="#6e6961"/>
  <path id="Trazado_202" data-name="Trazado 202" d="M333.5-521.64l.058.009.006.427-.05-.008v-.108l-.078-.013-.034.1-.05-.008Zm-.048.26.063.01v-.205h0Z" transform="translate(-319.553 531.043)" fill="#6e6961"/>
  <path id="Trazado_203" data-name="Trazado 203" d="M335.579-521.162l.075.03-.077.314h0l.163-.279.073.029-.158.39-.044-.018.142-.351h0l-.19.331-.047-.019.09-.372h0l-.142.351-.041-.017Z" transform="translate(-321.286 530.644)" fill="#6e6961"/>
  <path id="Trazado_204" data-name="Trazado 204" d="M323.8-519.978l-.021-.057.075-.028.077.209-.034.013-.018-.048a.1.1,0,0,1,0,.049.041.041,0,0,1-.025.026.064.064,0,0,1-.071-.014.337.337,0,0,1-.063-.118l-.029-.079a.335.335,0,0,1-.03-.139.069.069,0,0,1,.048-.058.069.069,0,0,1,.072.009.216.216,0,0,1,.055.092h0l-.046.017h0a.166.166,0,0,0-.027-.051.028.028,0,0,0-.033-.008.029.029,0,0,0-.017.03.186.186,0,0,0,.014.063l.047.126q.03.08.062.069c.013,0,.019-.017.018-.036a.292.292,0,0,0-.02-.078Z" transform="translate(-311.446 529.863)" fill="#6e6961"/>
  <path id="Trazado_205" data-name="Trazado 205" d="M289.751-545.422c-.082-.014-.069-.123-.1-.185-.068.034-.048.123-.13.164a.952.952,0,0,0-.425.4c-.123-.082-.048-.274-.069-.411.041-.137.206-.055.295-.1v-.185c-.027-.089-.151-.034-.226-.048-.13-.069-.027-.253-.082-.363h-.267l-.014.295c-.055.11-.2.069-.294.1a.612.612,0,0,0,.014.226h.233c.2.206-.151.8.294.726a1.283,1.283,0,0,1,.754-.178c.24-.137.082-.432.2-.61a.376.376,0,0,0-.178.164m-.069.295c-.13.1-.281.007-.425.082-.027-.013-.014-.048-.02-.068.1-.062.164-.171.281-.178.007.028.048.1.082.048.075-.007.11-.185.164-.048a.143.143,0,0,1-.082.165m-1.116-.165c-.075-.192-.274-.164-.445-.164-.1,0-.2.1-.281-.034a.342.342,0,0,0,0,.294c.1.343.473.288.726.315.2-.089-.027-.26,0-.411m-.61.034c-.021-.089.089-.021.116-.068.117.062.295.007.377.116l.021.164c-.178-.013-.438-.013-.514-.212m-.555,1.4c.082.021.027.254.13.1.02-.055.075-.02.116-.034.062.171.329,0,.343.219a2.228,2.228,0,0,1-.938.39,1.145,1.145,0,0,1-.13-.788c.014-.027.055-.014.082-.014l.048.048c.041-.055.123-.117.2-.069a.236.236,0,0,0,.151.151m1.692.2c.02.075-.027.13-.082.178-.13.048-.274.192-.411.069-.13.027-.192-.117-.315-.1-.027-.014-.014-.055-.014-.082a.6.6,0,0,1,.589-.212c.062.089.205.021.233.151m4.8-1.055c-.021-.041-.062-.1-.117-.1-.1.069-.233.178-.315,0-.068-.014-.109.048-.164.082,0,.068.068.123.068.192a.5.5,0,0,1-.185.137,1.213,1.213,0,0,0-.493-.233c-.13-.055-.315.055-.411-.048a.836.836,0,0,0,.233-.76c-.027-.027-.007-.11-.082-.082-.027.027-.014.069-.014.1-.041.041-.055.123-.116.13-.089-.151.014-.308.062-.445-.1-.007-.151.089-.226.151-.069.041-.062.2-.164.144-.1-.164-.089-.4-.185-.555a1.723,1.723,0,0,1-.144.411c-.048.11-.027.308-.151.329a.379.379,0,0,1,0-.363c-.164.014-.2.212-.295.295l-.233-.226c-.062.041-.069.11-.11.164-.164.678.651.486.966.753.048.082.246-.034.212.1a.429.429,0,0,1-.192.082,1.412,1.412,0,0,0-1.384-.164,2.585,2.585,0,0,0-.822-.274c-.329-.055-.548.158-.836.212a1.886,1.886,0,0,0-.74-.116,1.191,1.191,0,0,0-1.069.671c.02-.014.034-.041.062-.027a.2.2,0,0,1,.068.082c.1-.014.2-.055.281.027.226-.068.24.26.473.164.014.226.233-.041.267.185a.259.259,0,0,0,.144-.048c.089-.342.514-.11.726-.2.02.158.205.158.294.26.11.021.151-.116.233-.144.007-.2.233-.11.329-.219a1.845,1.845,0,0,0,.294-.13.18.18,0,0,1,.062.233c-.11-.069-.247-.014-.356.014-.089.151-.267.082-.349.246a.088.088,0,0,0,.034.13c.062.082.185.041.247.034-.048.13.075.206.164.281.151.007.178-.192.233-.295l.048.034a1.281,1.281,0,0,1-.281.507l-.048-.034c.048-.123-.069-.2-.151-.26-.075-.027-.11.041-.164.062-.062-.041.021-.13-.034-.192s-.151-.171-.274-.151c-.1.007-.014.11-.1.13a.685.685,0,0,0-.445.212.9.9,0,0,0-.541-.164c-.034-.041-.062-.144-.144-.109-.267.027-.411.349-.692.294-.068.048-.233.021-.212.144a4.706,4.706,0,0,0,1.856,1.534l.116.014a3.064,3.064,0,0,1,.966-1.2c.144-.021.247.2.349.308-.233.219-.479.363-.726.575v.068c.322-.13.589-.377.9-.507l.479.329c.13.068.233.219.377.274a3.3,3.3,0,0,1,.637-.637c.582-.329,1.459-.788,1.315-1.61.014-.13-.164-.288,0-.384.082-.123.151.041.233.055.055-.021.151-.075.116-.164-.192-.164.158-.158.117-.315m-2.624-.36c-.086-.01-.2.028-.253-.1-.034-.048,0-.089.014-.13a.83.83,0,0,0,.239.229.12.12,0,0,1,.055.018.269.269,0,0,1-.055-.018m.24.148a.294.294,0,0,1-.137-.247l.034-.021a.306.306,0,0,1,.1.267m.26-.082c-.089,0-.028-.116-.069-.164a.78.78,0,0,1,.069-.247c.1.117.034.288,0,.411m.329.1c-.13-.123.021-.329.068-.459l.027.178c.041.123-.055.192-.1.281" transform="translate(-280.709 551.541)" fill="#6e6961"/>
  <path id="Trazado_206" data-name="Trazado 206" d="M307.83-494.915a.82.82,0,0,0-.644.349c.13.212.116.479.329.658a.754.754,0,0,0,.562.144,1.911,1.911,0,0,0-.13-.363c-.069-.1-.178-.178-.212-.295a2.5,2.5,0,0,0,.6-.144c.1-.089.26-.144.3-.281-.288.075-.527-.069-.808-.069m.048.973c-.062.082-.13-.02-.2-.034-.116-.11-.288-.274-.226-.425a.679.679,0,0,1,.425.459m-.39-.692c.007-.1.171-.137.274-.164a1.852,1.852,0,0,1,.479.082.878.878,0,0,1-.753.082" transform="translate(-297.672 508.692)" fill="#6e6961"/>
</svg>
