<svg xmlns="http://www.w3.org/2000/svg" width="16.946" height="16.974" viewBox="0 0 16.946 16.974">
  <path id="Sustracción_603" data-name="Sustracción 603" d="M8.469,16.974h0A8.485,8.485,0,0,1,1.19,12.826l2.228-1.039c.067.1.138.206.21.3a6.1,6.1,0,0,0,3.912,2.4,5.969,5.969,0,0,0,.978.081l.186,0a5.912,5.912,0,0,0,1.174-.155,5.987,5.987,0,0,0,1.819-.765l1.516.465-.192-1.607a6,6,0,0,0,.581-.8,6.1,6.1,0,0,0,.88-3.276L11.612,9.77a2.776,2.776,0,0,1-.477,1.081,2.7,2.7,0,0,1-.47.489A3.224,3.224,0,0,1,10,11.75l0,0-.018.008a4.159,4.159,0,0,1-.959.273,3.194,3.194,0,0,1-.469.036,2.836,2.836,0,0,1-.344-.021,2.639,2.639,0,0,1-1.211-.471,3.039,3.039,0,0,1-.409-.349,3.235,3.235,0,0,1-.285-.334,2.491,2.491,0,0,1-.221-.348l1.928-.9h0l3.546-1.654,2.661-1.241a6.318,6.318,0,0,0-.311-.809,6.245,6.245,0,0,0-.631-1.063,6.118,6.118,0,0,0-2.79-2.1,6.082,6.082,0,0,0-1.122-.3A6,6,0,0,0,8.379,2.4L8.2,2.4a5.947,5.947,0,0,0-4.244,1.98,6,6,0,0,0-.688.942,6.094,6.094,0,0,0-.492,1.052,6.124,6.124,0,0,0-.183,3.49c.018.074.038.151.06.228L.419,11.129A8.5,8.5,0,0,1,4.9.787,8.421,8.421,0,0,1,6.476.237a8.522,8.522,0,0,1,1.7-.232c.1,0,.2-.005.3-.005a8.477,8.477,0,0,1,8.24,6.523,8.585,8.585,0,0,1,.131,3.255A8.476,8.476,0,0,1,15,13.9l.378,2.86-2.758-.87a8.426,8.426,0,0,1-3.85,1.078C8.67,16.973,8.568,16.974,8.469,16.974ZM5.3,8.851h0a2.844,2.844,0,0,1-.09-.4,3.521,3.521,0,0,1-.041-.437A3.294,3.294,0,0,1,5.2,7.477a2.714,2.714,0,0,1,.447-1.186,2.782,2.782,0,0,1,.517-.563,3.576,3.576,0,0,1,.776-.484l.011-.005a3.63,3.63,0,0,1,.874-.283,2.87,2.87,0,0,1,.511-.047c.086,0,.172,0,.256.012a2.728,2.728,0,0,1,1.2.418,3.3,3.3,0,0,1,.427.322,3.494,3.494,0,0,1,.308.311,2.691,2.691,0,0,1,.25.327L5.3,8.851Z" fill="#6e6961"/>
</svg>
