<svg xmlns="http://www.w3.org/2000/svg" width="23.103" height="13.578" viewBox="0 0 23.103 13.578">
  <path id="Trazado_88907" data-name="Trazado 88907" d="M7.2,11.484H0V12.9H8.643v-2.6H7.2ZM1.445,1.412h7.2V0H0V2.6H1.445V1.412Zm17.89,7.815a4.891,4.891,0,0,0,2.042.41,5.148,5.148,0,0,0,1.169-.121c.094-.022.182-.045.267-.069V7.635a3.292,3.292,0,0,1-.472.256,2.172,2.172,0,0,1-.928.171,1.939,1.939,0,0,1-.916-.227,1.869,1.869,0,0,1-.705-.635,1.692,1.692,0,0,1-.271-.955,1.672,1.672,0,0,1,.271-.951,1.881,1.881,0,0,1,.705-.631,1.955,1.955,0,0,1,.916-.227,2.151,2.151,0,0,1,1.14.3,1.493,1.493,0,0,1,.236.171l.026-.034v-1.8c-.091-.027-.184-.053-.284-.077a4.839,4.839,0,0,0-1.152-.125,4.938,4.938,0,0,0-2.042.406,3.349,3.349,0,0,0-1.423,1.161,3.12,3.12,0,0,0-.521,1.815,3.12,3.12,0,0,0,.521,1.812,3.333,3.333,0,0,0,1.42,1.168Zm-3-6.175H14.36v6.4h1.971ZM13.342,6.462a2.044,2.044,0,0,0-.787-.593,4.992,4.992,0,0,0-.966-.308,3.612,3.612,0,0,1-.912-.312.539.539,0,0,1-.327-.483.488.488,0,0,1,.3-.456,2.443,2.443,0,0,1,.906-.152,2.262,2.262,0,0,1,.893.171,2.639,2.639,0,0,1,.558.3l.018-.03V3.132c-.18-.058-.385-.113-.617-.163a5.352,5.352,0,0,0-2.559.109A2.491,2.491,0,0,0,8.84,3.7,1.414,1.414,0,0,0,8.45,4.72a1.656,1.656,0,0,0,.187.814,1.742,1.742,0,0,0,.491.564,2.806,2.806,0,0,0,.654.362,4.3,4.3,0,0,0,.685.206,4.5,4.5,0,0,1,.639.179,1.213,1.213,0,0,1,.429.254.523.523,0,0,1,.156.393.591.591,0,0,1-.323.522,1.707,1.707,0,0,1-.885.2,2.312,2.312,0,0,1-1-.214A3.783,3.783,0,0,1,8.738,7.6l-.016.031V9.3a6.257,6.257,0,0,0,.734.21,4.962,4.962,0,0,0,1.192.129,5.553,5.553,0,0,0,1.051-.1,3.335,3.335,0,0,0,.974-.343,1.946,1.946,0,0,0,.714-.658,1.9,1.9,0,0,0,.269-1.049,1.583,1.583,0,0,0-.313-1.024Zm-2.327,5.654a.618.618,0,0,1-.053.267.374.374,0,0,1-.149.167.423.423,0,0,1-.221.057.436.436,0,0,1-.224-.057.376.376,0,0,1-.151-.167.594.594,0,0,1-.054-.267V10.864H9.774v1.273a.92.92,0,0,0,.1.441.709.709,0,0,0,.285.288.977.977,0,0,0,.863,0,.706.706,0,0,0,.284-.288.908.908,0,0,0,.1-.441V10.864h-.391v1.252Zm1.864-.456a.636.636,0,0,0-.256-.054.526.526,0,0,0-.2.038.507.507,0,0,0-.155.095.283.283,0,0,0-.079.11v-.2h-.4v1.285h.4v-.7a.329.329,0,0,1,.045-.172.336.336,0,0,1,.115-.119A.288.288,0,0,1,12.5,11.9a.255.255,0,0,1,.194.077.323.323,0,0,1,.075.235v.722h.4v-.79a.539.539,0,0,0-.08-.307.444.444,0,0,0-.2-.174ZM7.707,6.438c0-.128,0-.212,0-.254a3.723,3.723,0,0,0-.406-1.808A2.713,2.713,0,0,0,6.163,3.25a3.7,3.7,0,0,0-1.742-.385A3.6,3.6,0,0,0,2.594,3.3,2.928,2.928,0,0,0,1.437,4.49a3.561,3.561,0,0,0-.4,1.688,3.686,3.686,0,0,0,.444,1.854A2.981,2.981,0,0,0,2.721,9.225a3.949,3.949,0,0,0,1.846.414A7.622,7.622,0,0,0,6.117,9.5a3.631,3.631,0,0,0,.659-.227V7.445a3.176,3.176,0,0,1-2.08.761H4.543l-.038,0-.031,0-.046,0H4.414a1.98,1.98,0,0,1-.684-.182,1.582,1.582,0,0,1-.347-.227l-.019-.016-.019-.018a1.522,1.522,0,0,1-.407-.7h0L2.926,7a1.953,1.953,0,0,1-.042-.3h4.8a1.214,1.214,0,0,0,.022-.254ZM2.941,5.467a1.365,1.365,0,0,1,.674-1.036,1.587,1.587,0,0,1,.83-.2,1.443,1.443,0,0,1,.81.2,1.274,1.274,0,0,1,.448.491,1.307,1.307,0,0,1,.152.537Zm10.664,7.46H14V11.642h-.4v1.285Zm6.3,0h.4V11.642h-.4v1.285Zm1.462-.315a.143.143,0,0,1-.08.019.1.1,0,0,1-.094-.052.278.278,0,0,1-.03-.142v-.464h.3v-.33h-.3v-.526h-.395v.526h-.232v.33h.232v.571a.406.406,0,0,0,.115.319.428.428,0,0,0,.293.1.793.793,0,0,0,.178-.019.728.728,0,0,0,.13-.043.334.334,0,0,0,.06-.033l-.141-.285a.2.2,0,0,1-.037.027Zm-1.142-1.738a.23.23,0,0,0-.284.038.233.233,0,0,0,0,.33.236.236,0,0,0,.4-.164.225.225,0,0,0-.033-.119.253.253,0,0,0-.085-.084Zm2.489.768-.38.936-.345-.936h-.4l.533,1.285-.3.651h.4l.878-1.935Zm-8.784-.768a.23.23,0,0,0-.284.038.233.233,0,0,0,0,.33.236.236,0,0,0,.4-.164.225.225,0,0,0-.033-.119.267.267,0,0,0-.085-.084Zm1.016,1.69-.351-.921h-.426l.544,1.285h.467l.543-1.285H15.3l-.353.921Zm1.929-.882a.744.744,0,0,0-.35-.077.725.725,0,0,0-.366.088.586.586,0,0,0-.232.239.715.715,0,0,0-.08.339.732.732,0,0,0,.09.372.593.593,0,0,0,.248.239.8.8,0,0,0,.37.083,1.239,1.239,0,0,0,.279-.027.63.63,0,0,0,.184-.073.512.512,0,0,0,.117-.1l-.164-.244a.355.355,0,0,1-.08.071.565.565,0,0,1-.132.062.6.6,0,0,1-.179.024.439.439,0,0,1-.193-.039.293.293,0,0,1-.123-.109.334.334,0,0,1-.047-.156h.963a.305.305,0,0,0,0-.052c0-.026,0-.042,0-.052a.75.75,0,0,0-.081-.364.552.552,0,0,0-.229-.224Zm-.647.445a.277.277,0,0,1,.136-.208.323.323,0,0,1,.167-.039.289.289,0,0,1,.163.041.249.249,0,0,1,.09.1.252.252,0,0,1,.03.109h-.585Zm1.981-.522a.443.443,0,0,0-.212.046.45.45,0,0,0-.137.1.39.39,0,0,0-.053.076v-.189h-.4v1.285h.4v-.667a.377.377,0,0,1,.033-.145.335.335,0,0,1,.1-.132.247.247,0,0,1,.164-.054.318.318,0,0,1,.138.027.234.234,0,0,1,.076.052l.156-.326a.388.388,0,0,0-.1-.052.45.45,0,0,0-.16-.026Zm1.192.6a1,1,0,0,0-.194-.061.694.694,0,0,1-.183-.062.11.11,0,0,1-.065-.1.1.1,0,0,1,.061-.091.335.335,0,0,1,.151-.03.453.453,0,0,1,.179.034.51.51,0,0,1,.111.06l.136-.239a.376.376,0,0,0-.09-.045,1.013,1.013,0,0,0-.167-.047,1.052,1.052,0,0,0-.214-.022.818.818,0,0,0-.267.043.5.5,0,0,0-.2.125.285.285,0,0,0-.079.2.321.321,0,0,0,.038.163.363.363,0,0,0,.1.114.544.544,0,0,0,.132.073.8.8,0,0,0,.138.041.92.92,0,0,1,.128.037.228.228,0,0,1,.085.052.106.106,0,0,1,.031.079.118.118,0,0,1-.065.1.349.349,0,0,1-.178.039.468.468,0,0,1-.2-.043.553.553,0,0,1-.134-.079l-.136.266a.534.534,0,0,0,.095.057.811.811,0,0,0,.17.06.968.968,0,0,0,.239.026,1.129,1.129,0,0,0,.212-.02.655.655,0,0,0,.2-.069.4.4,0,0,0,.144-.132.376.376,0,0,0,.054-.21.319.319,0,0,0-.062-.206.434.434,0,0,0-.159-.121Z" fill="#6e6961"/>
</svg>
