<svg xmlns="http://www.w3.org/2000/svg" width="26.673" height="11.83" viewBox="0 0 26.673 11.83">
  <g id="_0df09f0ab7a1addd8f3557377e645a7f1700042860" data-name="0df09f0ab7a1addd8f3557377e645a7f1700042860" transform="translate(0 0)">
    <path id="Trazado_4951" data-name="Trazado 4951" d="M43.847-453.67v1.33l-.223-.21a2.146,2.146,0,0,0-1.777-.573,2.321,2.321,0,0,0-1.424.728,2.951,2.951,0,0,0-.78,1.871l-.019.288-.129-.1a4.738,4.738,0,0,0-1.376-.6c-.806-.246-.971-.337-.971-.528,0-.408.845-.372,1.809.078a1.006,1.006,0,0,0,.33.12c.042-.045.644-1.168.644-1.2a3.881,3.881,0,0,0-.874-.424,4.777,4.777,0,0,0-1.939-.2,1.957,1.957,0,0,0-1.618,1.126c-.123.34-.107.333-.246.087a3.008,3.008,0,0,0-.754-.809,3.028,3.028,0,0,0-3.467.207,3.131,3.131,0,0,0-.842,3.324,2.6,2.6,0,0,0,1.324,1.55,3.318,3.318,0,0,0,3.5-.3l.152-.133.243.149a4.593,4.593,0,0,0,1.654.586,5.354,5.354,0,0,0,1.537-.039,1.887,1.887,0,0,0,1.282-.971l.12-.246.1.172a2.667,2.667,0,0,0,.375.447,1.743,1.743,0,0,0,.586.427,2.253,2.253,0,0,0,1.075.252,1.893,1.893,0,0,0,1.444-.6l.265-.256v.722h1.974V-449l.155.288a3.044,3.044,0,0,0,3.292,1.408,2.928,2.928,0,0,0,1.2-.5,2.965,2.965,0,0,0,.6-.589,7.026,7.026,0,0,0-.541-.466l-.537-.443-.162.142a1.389,1.389,0,0,1-2.22-.249c-.126-.282-.291-.256,1.715-.256H51.1v2.266h2l.01-1.709c.01-1.68.01-1.709.081-1.839a.761.761,0,0,1,.8-.427.625.625,0,0,1,.618.4l.1.191.01,1.693.01,1.693H56.7l-.01-2.081a13.372,13.372,0,0,0-.068-2.272,1.757,1.757,0,0,0-1.8-1.385,1.815,1.815,0,0,0-1.431.592l-.285.275-.006-.372-.01-.372H51.113l-.01.822-.006.822-.146-.3a2.538,2.538,0,0,0-2.476-1.469,2.777,2.777,0,0,0-1.638.489,3.01,3.01,0,0,0-.939,1.12l-.074.165v-1.822l0-1.819H43.847Zm-10.561,2.088a1.091,1.091,0,0,1,.272.2,1.376,1.376,0,0,1,.278.6l.019.126h-.977c-1.1,0-1.02.026-.913-.285A.94.94,0,0,1,33.285-451.582Zm15.582-.016a1.078,1.078,0,0,1,.528.673,1.406,1.406,0,0,1,.052.22c0,.032-.191.042-.984.042h-.984l.042-.155a.966.966,0,0,1,1.1-.845A.948.948,0,0,1,48.867-451.6Zm-5.878.142a1.208,1.208,0,0,1,.88,1.123,1.321,1.321,0,0,1-.7,1.327.84.84,0,0,1-.443.074.845.845,0,0,1-.476-.091,1.308,1.308,0,0,1-.67-1.4,1.2,1.2,0,0,1,.867-1.042A.871.871,0,0,1,42.989-451.456Zm-6.736,1.609a5.993,5.993,0,0,0,1.126.4c.774.22.948.333.887.576-.039.152-.188.214-.531.214a3.316,3.316,0,0,1-1.635-.476,1.364,1.364,0,0,0-.272-.129c-.006.01-.113.175-.233.369a1.709,1.709,0,0,1-.256.35,4.155,4.155,0,0,1-.476-.366,5.577,5.577,0,0,0-.463-.362,1.341,1.341,0,0,0-.23.162,1.44,1.44,0,0,1-.673.343,1.37,1.37,0,0,1-1.253-.3,1.5,1.5,0,0,1-.311-.557,12.849,12.849,0,0,1,1.877-.039H35.69v-.586l.184.149A2.462,2.462,0,0,0,36.253-449.847Z" transform="translate(-30.027 455)" fill="#6e6961"/>
    <path id="Trazado_4952" data-name="Trazado 4952" d="M640.023-168.863c-.013.013-.023.583-.023,1.266v1.24h.288l.01-.625c.01-.592.013-.628.084-.728a.515.515,0,0,1,.447-.214.413.413,0,0,1,.4.217c.058.094.065.165.065.725v.625h.291v-.576c0-.625-.029-.8-.146-.981a.721.721,0,0,0-1.039-.058l-.094.1-.016-.5-.016-.5-.113-.01A.256.256,0,0,0,640.023-168.863Z" transform="translate(-620.257 178.139)" fill="#6e6961"/>
    <path id="Trazado_4953" data-name="Trazado 4953" d="M837-167.738v1.262h.259V-169H837Z" transform="translate(-810.881 178.257)" fill="#6e6961"/>
    <path id="Trazado_4954" data-name="Trazado 4954" d="M238-166.854v.146h.291V-167H238Z" transform="translate(-231.268 176.322)" fill="#6e6961"/>
    <path id="Trazado_4955" data-name="Trazado 4955" d="M513.908-166.418a.765.765,0,0,0-.511.353.535.535,0,0,0-.065.343c.023.353.191.489.793.647.5.129.621.22.625.443a.388.388,0,0,1-.214.363,1.068,1.068,0,0,1-1.1-.227c-.032-.023-.068-.006-.133.055-.084.087-.084.091-.026.155a1.44,1.44,0,0,0,.3.184,1.012,1.012,0,0,0,.518.133.994.994,0,0,0,.657-.133.638.638,0,0,0,.155-.91,1.281,1.281,0,0,0-.647-.311c-.476-.123-.628-.214-.664-.408-.081-.437.592-.621,1.075-.291l.126.087.074-.084a.326.326,0,0,0,.071-.113c0-.016-.055-.068-.12-.113A1.42,1.42,0,0,0,513.908-166.418Z" transform="translate(-497.596 175.775)" fill="#6e6961"/>
    <path id="Trazado_4956" data-name="Trazado 4956" d="M51-163.9v1.2l.722-.01c.664-.01.728-.016.848-.081a.61.61,0,0,0,.372-.579.554.554,0,0,0-.369-.521l-.126-.065.117-.071a.578.578,0,0,0-.036-.968c-.152-.087-.159-.087-.838-.1L51-165.1Zm1.227-.939a.573.573,0,0,1,.2.12c.078.074.091.113.091.256a.309.309,0,0,1-.091.265c-.126.133-.278.168-.757.168h-.414v-.842h.43A3.048,3.048,0,0,1,52.227-164.838Zm.223,1.13a.376.376,0,0,1,.133.583c-.146.155-.243.178-.8.191l-.528.013v-.887l.528.013C52.253-163.783,52.327-163.773,52.45-163.708Z" transform="translate(-50.321 174.483)" fill="#6e6961"/>
    <path id="Trazado_4957" data-name="Trazado 4957" d="M183.684-146.646a.47.47,0,0,0-.175.819,1.975,1.975,0,0,0,.4.168,1.276,1.276,0,0,1,.363.159.245.245,0,0,1-.129.421,1.018,1.018,0,0,1-.6-.1l-.172-.091-.058.071c-.032.042-.055.091-.049.11a.668.668,0,0,0,.2.129,1.041,1.041,0,0,0,.851.045.427.427,0,0,0,.278-.447c0-.155-.013-.2-.081-.275a1.118,1.118,0,0,0-.537-.269c-.243-.074-.4-.188-.4-.295a.28.28,0,0,1,.074-.149c.126-.149.388-.139.767.029.036.013.068-.01.107-.078l.058-.1-.178-.084A1.221,1.221,0,0,0,183.684-146.646Z" transform="translate(-178.306 156.654)" fill="#6e6961"/>
    <path id="Trazado_4958" data-name="Trazado 4958" d="M263.618-146.872a.66.66,0,0,0-.217.142.619.619,0,0,1-.126.107c-.01,0-.016-.058-.016-.129v-.129H263v1.78h.259v-.528a4.312,4.312,0,0,1,.036-.654.551.551,0,0,1,.638-.375c.324.091.363.191.363.955v.6h.259v-.657c0-.709-.026-.825-.2-.984A.784.784,0,0,0,263.618-146.872Z" transform="translate(-255.459 156.883)" fill="#6e6961"/>
    <path id="Trazado_4959" data-name="Trazado 4959" d="M323.628-146.77a.967.967,0,0,0-.524,1.191.9.9,0,0,0,1.256.534,1.072,1.072,0,0,0,.246-.162l.071-.074-.078-.074-.078-.071-.146.1a.693.693,0,0,1-.819-.01.649.649,0,0,1-.22-.359l-.019-.087h1.424v-.139a.933.933,0,0,0-.414-.79A.969.969,0,0,0,323.628-146.77Zm.531.243a.711.711,0,0,1,.3.44l.01.1-.573.01a2.572,2.572,0,0,1-.576-.023,1.356,1.356,0,0,1,.049-.168A.564.564,0,0,1,324.159-146.528Z" transform="translate(-313.576 156.785)" fill="#6e6961"/>
    <path id="Trazado_4960" data-name="Trazado 4960" d="M383.687-146.633a.487.487,0,0,0-.346.479c0,.233.172.382.566.5.473.136.586.295.372.508-.094.094-.11.1-.32.084a.857.857,0,0,1-.392-.1c-.172-.091-.175-.091-.236-.026-.091.091-.052.155.162.252a1.145,1.145,0,0,0,.829.049.481.481,0,0,0,.152-.8,1.882,1.882,0,0,0-.4-.181,1.878,1.878,0,0,1-.388-.165.2.2,0,0,1,0-.324.655.655,0,0,1,.628,0l.146.074.058-.071c.091-.11.068-.149-.129-.223A1.14,1.14,0,0,0,383.687-146.633Z" transform="translate(-371.851 156.647)" fill="#6e6961"/>
    <path id="Trazado_4961" data-name="Trazado 4961" d="M432.44-146.631a.494.494,0,0,0-.343.583c.058.178.188.269.55.392.388.129.453.178.453.33,0,.282-.382.363-.777.168l-.2-.1-.058.078a.349.349,0,0,0-.062.1.751.751,0,0,0,.2.129.9.9,0,0,0,.46.113.614.614,0,0,0,.4-.061.487.487,0,0,0,.291-.437c0-.272-.155-.408-.628-.557-.269-.087-.369-.149-.395-.246-.039-.162.136-.307.366-.307a1.138,1.138,0,0,1,.317.081c.107.045.2.081.2.081a.514.514,0,0,0,.058-.1l.052-.1-.178-.081A1.089,1.089,0,0,0,432.44-146.631Z" transform="translate(-418.989 156.645)" fill="#6e6961"/>
    <path id="Trazado_4962" data-name="Trazado 4962" d="M579.647-146.658a.92.92,0,0,0-.647.88.884.884,0,0,0,.5.858.953.953,0,0,0,1.049-.165l.074-.081-.074-.081-.074-.078-.1.074a.646.646,0,0,1-.508.175.7.7,0,0,1-.44-1.149.619.619,0,0,1,.913-.058l.11.087.081-.094c.1-.11.071-.146-.181-.285a.761.761,0,0,0-.395-.1A1.164,1.164,0,0,0,579.647-146.658Z" transform="translate(-561.231 156.656)" fill="#6e6961"/>
    <path id="Trazado_4963" data-name="Trazado 4963" d="M700.734-146.717a1,1,0,0,0-.453.324.928.928,0,0,0,.754,1.489.9.9,0,0,0,.913-.932.874.874,0,0,0-.871-.913A1.013,1.013,0,0,0,700.734-146.717Zm.537.246a.763.763,0,0,1,.372.408,1.013,1.013,0,0,1,.026.311.644.644,0,0,1-1.175.327.8.8,0,0,1-.049-.735A.626.626,0,0,1,701.271-146.471Z" transform="translate(-678.404 156.728)" fill="#6e6961"/>
    <path id="Trazado_4964" data-name="Trazado 4964" d="M767.308-146.8a.951.951,0,0,0-.346,1.5.952.952,0,0,0,1.055.22.937.937,0,0,0,.515-1.168.933.933,0,0,0-.563-.563A1.042,1.042,0,0,0,767.308-146.8Zm.544.2a.719.719,0,0,1,.44.829.737.737,0,0,1-.466.511.651.651,0,0,1-.745-.346.7.7,0,0,1,.32-.971A.554.554,0,0,1,767.852-146.6Z" transform="translate(-742.885 156.831)" fill="#6e6961"/>
    <path id="Trazado_4965" data-name="Trazado 4965" d="M123-145.391c0,.7.032.871.2,1.033a.579.579,0,0,0,.479.172.584.584,0,0,0,.5-.188l.12-.117v.272h.259V-146h-.259v.586a1.971,1.971,0,0,1-.052.7.52.52,0,0,1-.893.078c-.068-.11-.074-.159-.084-.741l-.013-.621H123Z" transform="translate(-119.991 156.001)" fill="#6e6961"/>
    <path id="Trazado_4966" data-name="Trazado 4966" d="M238-145.11v.89h.291V-146H238Z" transform="translate(-231.268 156.001)" fill="#6e6961"/>
  </g>
</svg>
