<svg xmlns="http://www.w3.org/2000/svg" width="15.5" height="15.5" viewBox="0 0 15.5 15.5">
  <g id="sun-2-svgrepo-com" transform="translate(-1.25 -1.25)">
    <path id="Trazado_88917" data-name="Trazado 88917" d="M14.209,10.6A3.6,3.6,0,1,1,10.6,7,3.6,3.6,0,0,1,14.209,10.6Z" transform="translate(-1.605 -1.605)" fill="#8b867e"/>
    <path id="Trazado_88918" data-name="Trazado 88918" d="M9,1.25a.541.541,0,0,1,.541.541V3.233a.541.541,0,1,1-1.081,0V1.791A.541.541,0,0,1,9,1.25ZM2.994,3.028a.541.541,0,0,1,.764-.034l1.6,1.465a.541.541,0,1,1-.73.8l-1.6-1.465A.541.541,0,0,1,2.994,3.028Zm12.013,0a.541.541,0,0,1-.034.764l-1.6,1.465a.541.541,0,0,1-.73-.8l1.6-1.465A.541.541,0,0,1,15.006,3.028ZM1.25,9a.541.541,0,0,1,.541-.541H3.233a.541.541,0,1,1,0,1.081H1.791A.541.541,0,0,1,1.25,9ZM14.227,9a.541.541,0,0,1,.541-.541h1.442a.541.541,0,0,1,0,1.081H14.767A.541.541,0,0,1,14.227,9Zm-1.6,3.623a.541.541,0,0,1,.765,0l1.6,1.6a.541.541,0,1,1-.765.765l-1.6-1.6A.541.541,0,0,1,12.623,12.623Zm-7.246,0a.541.541,0,0,1,0,.765l-1.6,1.6a.541.541,0,1,1-.765-.765l1.6-1.6A.541.541,0,0,1,5.377,12.623ZM9,14.227a.541.541,0,0,1,.541.541v1.442a.541.541,0,0,1-1.081,0V14.767A.541.541,0,0,1,9,14.227Z" fill="#8b867e" fill-rule="evenodd"/>
  </g>
</svg>
