<svg xmlns="http://www.w3.org/2000/svg" width="11.695" height="13.862" viewBox="0 0 11.695 13.862">
  <g id="Grupo_295" data-name="Grupo 295" transform="translate(-983.402 -361.069)">
    <path id="moon-zzz-fill-svgrepo-com" d="M10.686,15.026a4.987,4.987,0,0,0,4.806-3.057.494.494,0,0,0-.036-.563.437.437,0,0,0-.472-.03,4.648,4.648,0,0,1-1.713.285A4.15,4.15,0,0,1,8.786,7.326,4.929,4.929,0,0,1,9.113,5.45a.525.525,0,0,0,.018-.557c-.109-.133-.309-.157-.569-.067A5.209,5.209,0,0,0,5.359,9.8,5.131,5.131,0,0,0,10.686,15.026Z" transform="translate(978.043 359.905)" fill="#8b867e"/>
    <path id="moon-zzz-fill-svgrepo-com-2" data-name="moon-zzz-fill-svgrepo-com" d="M13.925,3.737,12.545,3.7l1.41-1.858a.618.618,0,0,0,.176-.375.308.308,0,0,0-.345-.3H11.843a.3.3,0,0,0-.321.309.3.3,0,0,0,.321.315h1.3v.036L11.716,3.676a.592.592,0,0,0-.176.381.31.31,0,0,0,.339.3h2.046a.312.312,0,1,0,0-.624Z" transform="translate(978.043 359.905)" fill="#8b867e"/>
    <path id="moon-zzz-fill-svgrepo-com-3" data-name="moon-zzz-fill-svgrepo-com" d="M16.758,6.049h-.975V6.025l1-1.314a.593.593,0,0,0,.163-.357.292.292,0,0,0-.327-.285H15.142a.3.3,0,1,0,0,.593h.878v.024L15.021,6a.543.543,0,0,0-.157.363.289.289,0,0,0,.315.284h1.58a.28.28,0,0,0,.3-.3A.284.284,0,0,0,16.758,6.049Z" transform="translate(978.043 359.905)" fill="#8b867e"/>
    <path id="moon-zzz-fill-svgrepo-com-4" data-name="moon-zzz-fill-svgrepo-com" d="M14.088,8.119h-.829V8.1l.854-1.132a.59.59,0,0,0,.157-.339.278.278,0,0,0-.309-.272H12.654a.281.281,0,1,0,0,.563h.726v.024l-.841,1.126a.546.546,0,0,0-.151.345.279.279,0,0,0,.3.278h1.4a.27.27,0,0,0,.278-.291A.267.267,0,0,0,14.088,8.119Z" transform="translate(978.043 359.905)" fill="#8b867e"/>
  </g>
</svg>
