<svg xmlns="http://www.w3.org/2000/svg" width="14.25" height="11.18" viewBox="0 0 14.25 11.18">
  <g id="weather-2-svgrepo-com" transform="translate(-1.012 -54.864)">
    <g id="Grupo_296" data-name="Grupo 296">
      <path id="Trazado_88919" data-name="Trazado 88919" d="M68.575,126.374a3.99,3.99,0,0,1,2.1-.595c.092,0,.185,0,.278.009a5.2,5.2,0,0,1,1.418-2.359,2.79,2.79,0,0,0-5.573.257A2.884,2.884,0,0,0,68.575,126.374Z" transform="translate(-65.785 -65.936)" fill="#8b867e"/>
    </g>
    <path id="Trazado_88925" data-name="Trazado 88925" d="M94.373,181.577h0c0-.04,0-.079,0-.119a3.458,3.458,0,0,0-6.9-.358,2.683,2.683,0,1,0-.793,5.246h7.691a2.385,2.385,0,1,0,0-4.769Z" transform="translate(-81.496 -120.302)" fill="#8b867e"/>
  </g>
</svg>
