<svg xmlns="http://www.w3.org/2000/svg" width="15.262" height="12.043" viewBox="0 0 15.262 12.043">
  <g id="weather-2-svgrepo-com" transform="translate(0 -54.002)">
    <g id="Grupo_296" data-name="Grupo 296">
      <path id="Trazado_88919" data-name="Trazado 88919" d="M68.262,125.245a3.371,3.371,0,0,1,1.73-.474c.076,0,.153,0,.229.007A4.121,4.121,0,0,1,71.39,122.9a2.3,2.3,0,1,0-3.128,2.349Z" transform="translate(-64.806 -64.807)" fill="#8b867e"/>
      <rect id="Rectángulo_819" data-name="Rectángulo 819" width="0.498" height="1.369" transform="translate(4.043 54.002)" fill="#8b867e"/>
      <path id="Trazado_88920" data-name="Trazado 88920" d="M65.887,70.3,65.2,69.116l-.431.249.684,1.185Z" transform="translate(-62.842 -14.663)" fill="#8b867e"/>
      <path id="Trazado_88921" data-name="Trazado 88921" d="M15.114,119.205l1.185.684.249-.431-1.185-.684Z" transform="translate(-14.664 -62.841)" fill="#8b867e"/>
      <path id="Trazado_88922" data-name="Trazado 88922" d="M1.369,189.654H0v.5H1.369Z" transform="translate(0 -131.608)" fill="#8b867e"/>
      <path id="Trazado_88923" data-name="Trazado 88923" d="M15.114,240.5l.249.431,1.185-.684-.249-.431Z" transform="translate(-14.664 -180.27)" fill="#8b867e"/>
      <rect id="Rectángulo_820" data-name="Rectángulo 820" width="0.498" height="1.369" transform="translate(7.886 55.933) rotate(60.012)" fill="#8b867e"/>
      <path id="Trazado_88924" data-name="Trazado 88924" d="M186.932,69.365l-.431-.249-.684,1.185.431.249Z" transform="translate(-180.278 -14.663)" fill="#8b867e"/>
    </g>
    <path id="Trazado_88925" data-name="Trazado 88925" d="M94.373,181.577h0c0-.04,0-.079,0-.119a3.458,3.458,0,0,0-6.9-.358,2.683,2.683,0,1,0-.793,5.246h7.691a2.385,2.385,0,1,0,0-4.769Z" transform="translate(-81.496 -120.302)" fill="#8b867e"/>
  </g>
</svg>
